M48
; DRILL file KiCad 10.0.5 date 2026-09-15T13:48:08
; FORMAT={-:-/ absolute / metric / decimal}
; #@! TF.CreationDate,2026-09-15T13:48:08+02:00
; #@! TF.GenerationSoftware,Kicad,Pcbnew,10.0.5
; #@! TF.FileFunction,Plated,1,2,PTH
FMAT,2
METRIC
; #@! TA.AperFunction,Plated,PTH,ComponentDrill
T1C0.800
; #@! TA.AperFunction,Plated,PTH,ComponentDrill
T2C1.000
%
G90
G05
T1
X21.59Y-100.806
X21.59Y-119.856
X21.59Y-138.906
X21.59Y-157.956
X21.59Y-177.006
X29.21Y-100.806
X29.21Y-119.856
X29.21Y-138.906
X29.21Y-157.956
X29.21Y-177.006
X40.64Y-100.806
X40.64Y-119.856
X40.64Y-138.906
X40.64Y-157.956
X40.64Y-177.006
X48.26Y-100.806
X48.26Y-119.856
X48.26Y-138.906
X48.26Y-157.956
X48.26Y-177.006
X59.69Y-100.806
X59.69Y-177.006
X59.849Y-119.856
X59.849Y-138.906
X59.849Y-157.956
X67.31Y-100.806
X67.31Y-177.006
X67.469Y-119.856
X67.469Y-138.906
X67.469Y-157.956
X78.74Y-119.856
X78.74Y-138.906
X78.74Y-157.956
X78.74Y-177.006
X78.899Y-100.806
X86.36Y-119.856
X86.36Y-138.906
X86.36Y-157.956
X86.36Y-177.006
X86.519Y-100.806
X97.79Y-119.856
X97.79Y-138.906
X97.79Y-157.956
X97.949Y-100.806
X97.949Y-177.006
X105.41Y-119.856
X105.41Y-138.906
X105.41Y-157.956
X105.569Y-100.806
X105.569Y-177.006
X116.681Y-119.856
X116.84Y-100.806
X116.84Y-157.956
X116.999Y-138.906
X116.999Y-177.006
X124.301Y-119.856
X124.46Y-100.806
X124.46Y-157.956
X124.619Y-138.906
X124.619Y-177.006
X135.89Y-100.806
X137.477Y-138.906
X138.271Y-119.856
X138.271Y-157.956
X138.271Y-177.006
X143.51Y-100.806
X145.097Y-138.906
X145.891Y-119.856
X145.891Y-157.956
X145.891Y-177.006
T2
X154.6Y-84.39
X154.6Y-86.93
X154.6Y-89.47
X154.6Y-92.01
X154.6Y-94.55
X154.6Y-97.09
X154.6Y-99.63
X154.6Y-102.17
X154.6Y-104.71
X154.6Y-107.25
X154.6Y-109.79
X154.6Y-112.33
X154.6Y-114.87
X154.6Y-117.41
X154.6Y-119.95
X154.6Y-122.49
X154.6Y-125.03
X154.6Y-127.57
X154.6Y-130.11
X154.6Y-132.65
X172.38Y-84.39
X172.38Y-86.93
X172.38Y-89.47
X172.38Y-92.01
X172.38Y-94.55
X172.38Y-97.09
X172.38Y-99.63
X172.38Y-102.17
X172.38Y-104.71
X172.38Y-107.25
X172.38Y-109.79
X172.38Y-112.33
X172.38Y-114.87
X172.38Y-117.41
X172.38Y-119.95
X172.38Y-122.49
X172.38Y-125.03
X172.38Y-127.57
X172.38Y-130.11
X172.38Y-132.65
M30
