M48
; DRILL file KiCad 10.0.5 date 2026-09-15T13:48:08
; FORMAT={-:-/ absolute / metric / decimal}
; #@! TF.CreationDate,2026-09-15T13:48:08+02:00
; #@! TF.GenerationSoftware,Kicad,Pcbnew,10.0.5
; #@! TF.FileFunction,NonPlated,1,2,NPTH
FMAT,2
METRIC
; #@! TA.AperFunction,NonPlated,NPTH,ComponentDrill
T1C1.702
; #@! TA.AperFunction,NonPlated,NPTH,ComponentDrill
T2C1.850
; #@! TA.AperFunction,NonPlated,NPTH,ComponentDrill
T3C2.200
; #@! TA.AperFunction,NonPlated,NPTH,ComponentDrill
T4C3.048
; #@! TA.AperFunction,NonPlated,NPTH,ComponentDrill
T5C3.988
%
G90
G05
T1
X21.907Y-92.075
X21.907Y-111.125
X21.907Y-130.175
X21.907Y-149.225
X21.907Y-168.275
X32.067Y-92.075
X32.067Y-111.125
X32.067Y-130.175
X32.067Y-149.225
X32.067Y-168.275
X40.957Y-92.075
X40.957Y-111.125
X40.957Y-130.175
X40.957Y-149.225
X40.957Y-168.275
X51.117Y-92.075
X51.117Y-111.125
X51.117Y-130.175
X51.117Y-149.225
X51.117Y-168.275
X60.008Y-92.075
X60.008Y-111.125
X60.008Y-130.175
X60.008Y-149.225
X60.008Y-168.275
X70.167Y-92.075
X70.167Y-111.125
X70.167Y-130.175
X70.167Y-149.225
X70.167Y-168.275
X79.057Y-92.075
X79.057Y-111.125
X79.057Y-130.175
X79.057Y-149.225
X79.057Y-168.275
X89.218Y-92.075
X89.218Y-111.125
X89.218Y-130.175
X89.218Y-149.225
X89.218Y-168.275
X98.108Y-92.075
X98.108Y-111.125
X98.108Y-130.175
X98.108Y-149.225
X98.108Y-168.275
X108.267Y-92.075
X108.267Y-111.125
X108.267Y-130.175
X108.267Y-149.225
X108.267Y-168.275
X117.157Y-92.075
X117.157Y-111.125
X117.157Y-130.175
X117.157Y-149.225
X117.157Y-168.275
X127.317Y-92.075
X127.317Y-111.125
X127.317Y-130.175
X127.317Y-149.225
X127.317Y-168.275
X136.207Y-92.075
X136.207Y-111.125
X136.207Y-130.175
X136.207Y-149.225
X136.207Y-168.275
X146.368Y-92.075
X146.368Y-111.125
X146.368Y-130.175
X146.368Y-149.225
X146.368Y-168.275
T2
X161.065Y-87.55
X165.915Y-87.55
T3
X160.765Y-84.52
X166.215Y-84.52
T4
X24.447Y-86.995
X24.447Y-106.045
X24.447Y-125.095
X24.447Y-144.145
X24.447Y-163.195
X30.797Y-89.535
X30.797Y-108.585
X30.797Y-127.635
X30.797Y-146.685
X30.797Y-165.735
X43.497Y-86.995
X43.497Y-106.045
X43.497Y-125.095
X43.497Y-144.145
X43.497Y-163.195
X49.847Y-89.535
X49.847Y-108.585
X49.847Y-127.635
X49.847Y-146.685
X49.847Y-165.735
X62.547Y-86.995
X62.547Y-106.045
X62.547Y-125.095
X62.547Y-144.145
X62.547Y-163.195
X68.897Y-89.535
X68.897Y-108.585
X68.897Y-127.635
X68.897Y-146.685
X68.897Y-165.735
X81.597Y-86.995
X81.597Y-106.045
X81.597Y-125.095
X81.597Y-144.145
X81.597Y-163.195
X87.947Y-89.535
X87.947Y-108.585
X87.947Y-127.635
X87.947Y-146.685
X87.947Y-165.735
X100.647Y-86.995
X100.647Y-106.045
X100.647Y-125.095
X100.647Y-144.145
X100.647Y-163.195
X106.997Y-89.535
X106.997Y-108.585
X106.997Y-127.635
X106.997Y-146.685
X106.997Y-165.735
X119.697Y-86.995
X119.697Y-106.045
X119.697Y-125.095
X119.697Y-144.145
X119.697Y-163.195
X126.047Y-89.535
X126.047Y-108.585
X126.047Y-127.635
X126.047Y-146.685
X126.047Y-165.735
X138.748Y-86.995
X138.748Y-106.045
X138.748Y-125.095
X138.748Y-144.145
X138.748Y-163.195
X145.097Y-89.535
X145.097Y-108.585
X145.097Y-127.635
X145.097Y-146.685
X145.097Y-165.735
T5
X26.987Y-92.075
X26.987Y-111.125
X26.987Y-130.175
X26.987Y-149.225
X26.987Y-168.275
X46.038Y-92.075
X46.038Y-111.125
X46.038Y-130.175
X46.038Y-149.225
X46.038Y-168.275
X65.087Y-92.075
X65.087Y-111.125
X65.087Y-130.175
X65.087Y-149.225
X65.087Y-168.275
X84.138Y-92.075
X84.138Y-111.125
X84.138Y-130.175
X84.138Y-149.225
X84.138Y-168.275
X103.188Y-92.075
X103.188Y-111.125
X103.188Y-130.175
X103.188Y-149.225
X103.188Y-168.275
X122.237Y-92.075
X122.237Y-111.125
X122.237Y-130.175
X122.237Y-149.225
X122.237Y-168.275
X141.287Y-92.075
X141.287Y-111.125
X141.287Y-130.175
X141.287Y-149.225
X141.287Y-168.275
M30
