%TF.GenerationSoftware,KiCad,Pcbnew,10.0.5*%
%TF.CreationDate,2026-09-15T13:48:29+02:00*%
%TF.ProjectId,splitkeyboard,73706c69-746b-4657-9962-6f6172642e6b,rev?*%
%TF.SameCoordinates,Original*%
%TF.FileFunction,Legend,Top*%
%TF.FilePolarity,Positive*%
%FSLAX46Y46*%
G04 Gerber Fmt 4.6, Leading zero omitted, Abs format (unit mm)*
G04 Created by KiCad (PCBNEW 10.0.5) date 2026-09-15 13:48:29*
%MOMM*%
%LPD*%
G01*
G04 APERTURE LIST*
%ADD10C,0.100000*%
%ADD11C,0.150000*%
%ADD12C,0.120000*%
G04 APERTURE END LIST*
D10*
X168937217Y-173104228D02*
X168765789Y-173104228D01*
X168765789Y-173104228D02*
X168422931Y-172932800D01*
X168422931Y-172932800D02*
X167908646Y-172418514D01*
X167908646Y-172418514D02*
X167051503Y-171389942D01*
X167051503Y-171389942D02*
X166708646Y-170875657D01*
X166708646Y-170875657D02*
X166537217Y-170361371D01*
X166537217Y-170361371D02*
X166537217Y-170018514D01*
X166537217Y-170018514D02*
X166708646Y-169675657D01*
X166708646Y-169675657D02*
X167051503Y-169504228D01*
X167051503Y-169504228D02*
X167222931Y-169504228D01*
X167222931Y-169504228D02*
X167565789Y-169675657D01*
X167565789Y-169675657D02*
X167737217Y-170018514D01*
X167737217Y-170018514D02*
X167737217Y-170189942D01*
X167737217Y-170189942D02*
X167565789Y-170532800D01*
X167565789Y-170532800D02*
X167394360Y-170704228D01*
X167394360Y-170704228D02*
X166365789Y-171389942D01*
X166365789Y-171389942D02*
X166194360Y-171561371D01*
X166194360Y-171561371D02*
X166022931Y-171904228D01*
X166022931Y-171904228D02*
X166022931Y-172418514D01*
X166022931Y-172418514D02*
X166194360Y-172761371D01*
X166194360Y-172761371D02*
X166365789Y-172932800D01*
X166365789Y-172932800D02*
X166708646Y-173104228D01*
X166708646Y-173104228D02*
X167222931Y-173104228D01*
X167222931Y-173104228D02*
X167565789Y-172932800D01*
X167565789Y-172932800D02*
X167737217Y-172761371D01*
X167737217Y-172761371D02*
X168251503Y-172075657D01*
X168251503Y-172075657D02*
X168422931Y-171561371D01*
X168422931Y-171561371D02*
X168422931Y-171218514D01*
X154772931Y-173104228D02*
X154772931Y-169504228D01*
X154772931Y-170875657D02*
X155115789Y-170704228D01*
X155115789Y-170704228D02*
X155801503Y-170704228D01*
X155801503Y-170704228D02*
X156144360Y-170875657D01*
X156144360Y-170875657D02*
X156315789Y-171047085D01*
X156315789Y-171047085D02*
X156487217Y-171389942D01*
X156487217Y-171389942D02*
X156487217Y-172418514D01*
X156487217Y-172418514D02*
X156315789Y-172761371D01*
X156315789Y-172761371D02*
X156144360Y-172932800D01*
X156144360Y-172932800D02*
X155801503Y-173104228D01*
X155801503Y-173104228D02*
X155115789Y-173104228D01*
X155115789Y-173104228D02*
X154772931Y-172932800D01*
X159572932Y-173104228D02*
X159572932Y-171218514D01*
X159572932Y-171218514D02*
X159401503Y-170875657D01*
X159401503Y-170875657D02*
X159058646Y-170704228D01*
X159058646Y-170704228D02*
X158372932Y-170704228D01*
X158372932Y-170704228D02*
X158030074Y-170875657D01*
X159572932Y-172932800D02*
X159230074Y-173104228D01*
X159230074Y-173104228D02*
X158372932Y-173104228D01*
X158372932Y-173104228D02*
X158030074Y-172932800D01*
X158030074Y-172932800D02*
X157858646Y-172589942D01*
X157858646Y-172589942D02*
X157858646Y-172247085D01*
X157858646Y-172247085D02*
X158030074Y-171904228D01*
X158030074Y-171904228D02*
X158372932Y-171732800D01*
X158372932Y-171732800D02*
X159230074Y-171732800D01*
X159230074Y-171732800D02*
X159572932Y-171561371D01*
X161287217Y-173104228D02*
X161287217Y-170704228D01*
X161287217Y-171389942D02*
X161458646Y-171047085D01*
X161458646Y-171047085D02*
X161630075Y-170875657D01*
X161630075Y-170875657D02*
X161972932Y-170704228D01*
X161972932Y-170704228D02*
X162315789Y-170704228D01*
X163001503Y-170704228D02*
X164372931Y-170704228D01*
X163515788Y-169504228D02*
X163515788Y-172589942D01*
X163515788Y-172589942D02*
X163687217Y-172932800D01*
X163687217Y-172932800D02*
X164030074Y-173104228D01*
X164030074Y-173104228D02*
X164372931Y-173104228D01*
X154999122Y-175283134D02*
X154999122Y-178783134D01*
X154999122Y-175449801D02*
X155332455Y-175283134D01*
X155332455Y-175283134D02*
X155999122Y-175283134D01*
X155999122Y-175283134D02*
X156332455Y-175449801D01*
X156332455Y-175449801D02*
X156499122Y-175616467D01*
X156499122Y-175616467D02*
X156665789Y-175949801D01*
X156665789Y-175949801D02*
X156665789Y-176949801D01*
X156665789Y-176949801D02*
X156499122Y-177283134D01*
X156499122Y-177283134D02*
X156332455Y-177449801D01*
X156332455Y-177449801D02*
X155999122Y-177616467D01*
X155999122Y-177616467D02*
X155332455Y-177616467D01*
X155332455Y-177616467D02*
X154999122Y-177449801D01*
X158165789Y-177616467D02*
X158165789Y-175283134D01*
X158165789Y-174116467D02*
X157999122Y-174283134D01*
X157999122Y-174283134D02*
X158165789Y-174449801D01*
X158165789Y-174449801D02*
X158332456Y-174283134D01*
X158332456Y-174283134D02*
X158165789Y-174116467D01*
X158165789Y-174116467D02*
X158165789Y-174449801D01*
X159499123Y-177616467D02*
X161332456Y-175283134D01*
X159499123Y-175283134D02*
X161332456Y-177616467D01*
X163999122Y-177449801D02*
X163665789Y-177616467D01*
X163665789Y-177616467D02*
X162999122Y-177616467D01*
X162999122Y-177616467D02*
X162665789Y-177449801D01*
X162665789Y-177449801D02*
X162499122Y-177116467D01*
X162499122Y-177116467D02*
X162499122Y-175783134D01*
X162499122Y-175783134D02*
X162665789Y-175449801D01*
X162665789Y-175449801D02*
X162999122Y-175283134D01*
X162999122Y-175283134D02*
X163665789Y-175283134D01*
X163665789Y-175283134D02*
X163999122Y-175449801D01*
X163999122Y-175449801D02*
X164165789Y-175783134D01*
X164165789Y-175783134D02*
X164165789Y-176116467D01*
X164165789Y-176116467D02*
X162499122Y-176449801D01*
X166165789Y-177616467D02*
X165832456Y-177449801D01*
X165832456Y-177449801D02*
X165665789Y-177116467D01*
X165665789Y-177116467D02*
X165665789Y-174116467D01*
X167499122Y-177616467D02*
X167499122Y-175283134D01*
X167499122Y-175949801D02*
X167665789Y-175616467D01*
X167665789Y-175616467D02*
X167832455Y-175449801D01*
X167832455Y-175449801D02*
X168165789Y-175283134D01*
X168165789Y-175283134D02*
X168499122Y-175283134D01*
X169665789Y-177616467D02*
X169665789Y-175283134D01*
X169665789Y-174116467D02*
X169499122Y-174283134D01*
X169499122Y-174283134D02*
X169665789Y-174449801D01*
X169665789Y-174449801D02*
X169832456Y-174283134D01*
X169832456Y-174283134D02*
X169665789Y-174116467D01*
X169665789Y-174116467D02*
X169665789Y-174449801D01*
X170832456Y-175283134D02*
X172165789Y-175283134D01*
X171332456Y-177616467D02*
X171332456Y-174616467D01*
X171332456Y-174616467D02*
X171499123Y-174283134D01*
X171499123Y-174283134D02*
X171832456Y-174116467D01*
X171832456Y-174116467D02*
X172165789Y-174116467D01*
X172832456Y-175283134D02*
X174165789Y-175283134D01*
X173332456Y-174116467D02*
X173332456Y-177116467D01*
X173332456Y-177116467D02*
X173499123Y-177449801D01*
X173499123Y-177449801D02*
X173832456Y-177616467D01*
X173832456Y-177616467D02*
X174165789Y-177616467D01*
X160100000Y-142550000D02*
X161350000Y-142550000D01*
X161350000Y-142800000D01*
X160100000Y-142800000D01*
X160100000Y-142550000D01*
X163850000Y-150050000D02*
X163850000Y-150550000D01*
X164100000Y-150050000D02*
X164100000Y-150550000D01*
X164350000Y-150050000D02*
X163600000Y-150050000D01*
X164350000Y-149050000D02*
X164350000Y-150050000D01*
X164350000Y-147550000D02*
X164350000Y-149050000D01*
X164600000Y-147550000D02*
X164350000Y-147550000D01*
X164600000Y-146050000D02*
X164600000Y-147550000D01*
X163600000Y-146050000D02*
X164600000Y-146050000D01*
X154100000Y-146050000D02*
X153600000Y-146050000D01*
X153100000Y-145550000D02*
X153600000Y-146050000D01*
X153600000Y-145050000D02*
X153100000Y-145550000D01*
X154100000Y-146050000D02*
X153600000Y-145050000D01*
X154100000Y-144550000D02*
X154350000Y-145800000D01*
X154600000Y-144550000D02*
X154100000Y-144550000D01*
X154600000Y-145550000D02*
X154600000Y-144550000D01*
X154100000Y-146050000D02*
X156100000Y-147550000D01*
X154600000Y-145550000D02*
X154100000Y-146050000D01*
X156100000Y-146550000D02*
X154600000Y-145550000D01*
X156100000Y-147550000D02*
X157600000Y-147550000D01*
X156100000Y-146550000D02*
X156100000Y-147550000D01*
X157600000Y-146550000D02*
X156100000Y-146550000D01*
X160600000Y-153550000D02*
X161100000Y-153550000D01*
X160600000Y-152550000D02*
X160600000Y-153550000D01*
X160600000Y-152550000D02*
X161100000Y-152550000D01*
X161100000Y-152550000D02*
X162100000Y-152550000D01*
X162100000Y-151050000D02*
X162100000Y-152550000D01*
X161100000Y-153550000D02*
X163100000Y-153550000D01*
X163100000Y-151050000D02*
X163100000Y-153550000D01*
X157600000Y-152550000D02*
X157600000Y-153550000D01*
X160100000Y-153550000D02*
X160100000Y-151050000D01*
X159100000Y-153550000D02*
X160100000Y-153550000D01*
X157600000Y-153550000D02*
X159100000Y-153550000D01*
X159100000Y-152550000D02*
X157600000Y-152550000D01*
X159100000Y-151050000D02*
X159100000Y-152550000D01*
X157600000Y-145050000D02*
X163600000Y-145050000D01*
X163600000Y-151050000D01*
X157600000Y-151050000D01*
X157600000Y-145050000D01*
X159600000Y-144050000D02*
X161600000Y-144050000D01*
X161600000Y-145050000D01*
X159600000Y-145050000D01*
X159600000Y-144050000D01*
X160600000Y-137550000D02*
X160600000Y-137050000D01*
X161600000Y-138050000D02*
X162100000Y-138550000D01*
X159600000Y-138050000D02*
X159100000Y-138550000D01*
X161600000Y-138050000D02*
X162100000Y-137550000D01*
X159600000Y-138050000D02*
X159100000Y-137550000D01*
X159600000Y-137550000D02*
X159100000Y-137050000D01*
X161600000Y-137550000D02*
X162100000Y-137050000D01*
X159600000Y-137550000D02*
X160600000Y-137550000D01*
X161600000Y-137550000D02*
X160600000Y-137550000D01*
X160600000Y-137550000D02*
X161600000Y-137550000D01*
X160600000Y-138050000D02*
X160600000Y-137550000D01*
X159600000Y-138050000D02*
X160600000Y-138050000D01*
X160600000Y-138050000D02*
X159600000Y-138050000D01*
X160600000Y-138050000D02*
X161600000Y-138050000D01*
X160600000Y-139050000D02*
X160600000Y-138050000D01*
X157600000Y-140550000D02*
X158100000Y-140550000D01*
X158100000Y-141550000D01*
X157600000Y-141550000D01*
X157600000Y-140550000D01*
X163100000Y-140550000D02*
X163600000Y-140550000D01*
X163600000Y-141550000D01*
X163100000Y-141550000D01*
X163100000Y-140550000D01*
X159600000Y-143050000D02*
X161600000Y-143050000D01*
X159600000Y-143050000D02*
X159600000Y-142550000D01*
X161600000Y-142550000D02*
X161600000Y-143050000D01*
X159600000Y-142550000D02*
X161600000Y-142550000D01*
X162718034Y-140550000D02*
G75*
G02*
X160481966Y-140550000I-1118034J0D01*
G01*
X160481966Y-140550000D02*
G75*
G02*
X162718034Y-140550000I1118034J0D01*
G01*
X159807107Y-140550000D02*
G75*
G02*
X158392893Y-140550000I-707107J0D01*
G01*
X158392893Y-140550000D02*
G75*
G02*
X159807107Y-140550000I707107J0D01*
G01*
X158100000Y-139050000D02*
X163100000Y-139050000D01*
X163100000Y-144050000D02*
X158100000Y-144050000D01*
X163100000Y-139050000D02*
X163100000Y-144050000D01*
X158100000Y-144050000D02*
X158100000Y-139050000D01*
X158100000Y-139050000D02*
X158100000Y-144050000D01*
D11*
X119594464Y-175341069D02*
X119594464Y-174341069D01*
X119594464Y-174341069D02*
X119832559Y-174341069D01*
X119832559Y-174341069D02*
X119975416Y-174388688D01*
X119975416Y-174388688D02*
X120070654Y-174483926D01*
X120070654Y-174483926D02*
X120118273Y-174579164D01*
X120118273Y-174579164D02*
X120165892Y-174769640D01*
X120165892Y-174769640D02*
X120165892Y-174912497D01*
X120165892Y-174912497D02*
X120118273Y-175102973D01*
X120118273Y-175102973D02*
X120070654Y-175198211D01*
X120070654Y-175198211D02*
X119975416Y-175293450D01*
X119975416Y-175293450D02*
X119832559Y-175341069D01*
X119832559Y-175341069D02*
X119594464Y-175341069D01*
X121118273Y-175341069D02*
X120546845Y-175341069D01*
X120832559Y-175341069D02*
X120832559Y-174341069D01*
X120832559Y-174341069D02*
X120737321Y-174483926D01*
X120737321Y-174483926D02*
X120642083Y-174579164D01*
X120642083Y-174579164D02*
X120546845Y-174626783D01*
X121737321Y-174341069D02*
X121832559Y-174341069D01*
X121832559Y-174341069D02*
X121927797Y-174388688D01*
X121927797Y-174388688D02*
X121975416Y-174436307D01*
X121975416Y-174436307D02*
X122023035Y-174531545D01*
X122023035Y-174531545D02*
X122070654Y-174722021D01*
X122070654Y-174722021D02*
X122070654Y-174960116D01*
X122070654Y-174960116D02*
X122023035Y-175150592D01*
X122023035Y-175150592D02*
X121975416Y-175245830D01*
X121975416Y-175245830D02*
X121927797Y-175293450D01*
X121927797Y-175293450D02*
X121832559Y-175341069D01*
X121832559Y-175341069D02*
X121737321Y-175341069D01*
X121737321Y-175341069D02*
X121642083Y-175293450D01*
X121642083Y-175293450D02*
X121594464Y-175245830D01*
X121594464Y-175245830D02*
X121546845Y-175150592D01*
X121546845Y-175150592D02*
X121499226Y-174960116D01*
X121499226Y-174960116D02*
X121499226Y-174722021D01*
X121499226Y-174722021D02*
X121546845Y-174531545D01*
X121546845Y-174531545D02*
X121594464Y-174436307D01*
X121594464Y-174436307D02*
X121642083Y-174388688D01*
X121642083Y-174388688D02*
X121737321Y-174341069D01*
X116736845Y-175661069D02*
X116736845Y-174661069D01*
X117308273Y-175661069D02*
X116879702Y-175089640D01*
X117308273Y-174661069D02*
X116736845Y-175232497D01*
X43235714Y-99141069D02*
X43235714Y-98141069D01*
X43235714Y-98141069D02*
X43473809Y-98141069D01*
X43473809Y-98141069D02*
X43616666Y-98188688D01*
X43616666Y-98188688D02*
X43711904Y-98283926D01*
X43711904Y-98283926D02*
X43759523Y-98379164D01*
X43759523Y-98379164D02*
X43807142Y-98569640D01*
X43807142Y-98569640D02*
X43807142Y-98712497D01*
X43807142Y-98712497D02*
X43759523Y-98902973D01*
X43759523Y-98902973D02*
X43711904Y-98998211D01*
X43711904Y-98998211D02*
X43616666Y-99093450D01*
X43616666Y-99093450D02*
X43473809Y-99141069D01*
X43473809Y-99141069D02*
X43235714Y-99141069D01*
X44188095Y-98236307D02*
X44235714Y-98188688D01*
X44235714Y-98188688D02*
X44330952Y-98141069D01*
X44330952Y-98141069D02*
X44569047Y-98141069D01*
X44569047Y-98141069D02*
X44664285Y-98188688D01*
X44664285Y-98188688D02*
X44711904Y-98236307D01*
X44711904Y-98236307D02*
X44759523Y-98331545D01*
X44759523Y-98331545D02*
X44759523Y-98426783D01*
X44759523Y-98426783D02*
X44711904Y-98569640D01*
X44711904Y-98569640D02*
X44140476Y-99141069D01*
X44140476Y-99141069D02*
X44759523Y-99141069D01*
X45616666Y-98141069D02*
X45426190Y-98141069D01*
X45426190Y-98141069D02*
X45330952Y-98188688D01*
X45330952Y-98188688D02*
X45283333Y-98236307D01*
X45283333Y-98236307D02*
X45188095Y-98379164D01*
X45188095Y-98379164D02*
X45140476Y-98569640D01*
X45140476Y-98569640D02*
X45140476Y-98950592D01*
X45140476Y-98950592D02*
X45188095Y-99045830D01*
X45188095Y-99045830D02*
X45235714Y-99093450D01*
X45235714Y-99093450D02*
X45330952Y-99141069D01*
X45330952Y-99141069D02*
X45521428Y-99141069D01*
X45521428Y-99141069D02*
X45616666Y-99093450D01*
X45616666Y-99093450D02*
X45664285Y-99045830D01*
X45664285Y-99045830D02*
X45711904Y-98950592D01*
X45711904Y-98950592D02*
X45711904Y-98712497D01*
X45711904Y-98712497D02*
X45664285Y-98617259D01*
X45664285Y-98617259D02*
X45616666Y-98569640D01*
X45616666Y-98569640D02*
X45521428Y-98522021D01*
X45521428Y-98522021D02*
X45330952Y-98522021D01*
X45330952Y-98522021D02*
X45235714Y-98569640D01*
X45235714Y-98569640D02*
X45188095Y-98617259D01*
X45188095Y-98617259D02*
X45140476Y-98712497D01*
X40378095Y-99461069D02*
X40378095Y-98461069D01*
X40949523Y-99461069D02*
X40520952Y-98889640D01*
X40949523Y-98461069D02*
X40378095Y-99032497D01*
X138961905Y-99141069D02*
X138961905Y-98141069D01*
X138961905Y-98141069D02*
X139200000Y-98141069D01*
X139200000Y-98141069D02*
X139342857Y-98188688D01*
X139342857Y-98188688D02*
X139438095Y-98283926D01*
X139438095Y-98283926D02*
X139485714Y-98379164D01*
X139485714Y-98379164D02*
X139533333Y-98569640D01*
X139533333Y-98569640D02*
X139533333Y-98712497D01*
X139533333Y-98712497D02*
X139485714Y-98902973D01*
X139485714Y-98902973D02*
X139438095Y-98998211D01*
X139438095Y-98998211D02*
X139342857Y-99093450D01*
X139342857Y-99093450D02*
X139200000Y-99141069D01*
X139200000Y-99141069D02*
X138961905Y-99141069D01*
X140485714Y-99141069D02*
X139914286Y-99141069D01*
X140200000Y-99141069D02*
X140200000Y-98141069D01*
X140200000Y-98141069D02*
X140104762Y-98283926D01*
X140104762Y-98283926D02*
X140009524Y-98379164D01*
X140009524Y-98379164D02*
X139914286Y-98426783D01*
X135628095Y-99461069D02*
X135628095Y-98461069D01*
X136199523Y-99461069D02*
X135770952Y-98889640D01*
X136199523Y-98461069D02*
X135628095Y-99032497D01*
X43235714Y-137241069D02*
X43235714Y-136241069D01*
X43235714Y-136241069D02*
X43473809Y-136241069D01*
X43473809Y-136241069D02*
X43616666Y-136288688D01*
X43616666Y-136288688D02*
X43711904Y-136383926D01*
X43711904Y-136383926D02*
X43759523Y-136479164D01*
X43759523Y-136479164D02*
X43807142Y-136669640D01*
X43807142Y-136669640D02*
X43807142Y-136812497D01*
X43807142Y-136812497D02*
X43759523Y-137002973D01*
X43759523Y-137002973D02*
X43711904Y-137098211D01*
X43711904Y-137098211D02*
X43616666Y-137193450D01*
X43616666Y-137193450D02*
X43473809Y-137241069D01*
X43473809Y-137241069D02*
X43235714Y-137241069D01*
X44188095Y-136336307D02*
X44235714Y-136288688D01*
X44235714Y-136288688D02*
X44330952Y-136241069D01*
X44330952Y-136241069D02*
X44569047Y-136241069D01*
X44569047Y-136241069D02*
X44664285Y-136288688D01*
X44664285Y-136288688D02*
X44711904Y-136336307D01*
X44711904Y-136336307D02*
X44759523Y-136431545D01*
X44759523Y-136431545D02*
X44759523Y-136526783D01*
X44759523Y-136526783D02*
X44711904Y-136669640D01*
X44711904Y-136669640D02*
X44140476Y-137241069D01*
X44140476Y-137241069D02*
X44759523Y-137241069D01*
X45330952Y-136669640D02*
X45235714Y-136622021D01*
X45235714Y-136622021D02*
X45188095Y-136574402D01*
X45188095Y-136574402D02*
X45140476Y-136479164D01*
X45140476Y-136479164D02*
X45140476Y-136431545D01*
X45140476Y-136431545D02*
X45188095Y-136336307D01*
X45188095Y-136336307D02*
X45235714Y-136288688D01*
X45235714Y-136288688D02*
X45330952Y-136241069D01*
X45330952Y-136241069D02*
X45521428Y-136241069D01*
X45521428Y-136241069D02*
X45616666Y-136288688D01*
X45616666Y-136288688D02*
X45664285Y-136336307D01*
X45664285Y-136336307D02*
X45711904Y-136431545D01*
X45711904Y-136431545D02*
X45711904Y-136479164D01*
X45711904Y-136479164D02*
X45664285Y-136574402D01*
X45664285Y-136574402D02*
X45616666Y-136622021D01*
X45616666Y-136622021D02*
X45521428Y-136669640D01*
X45521428Y-136669640D02*
X45330952Y-136669640D01*
X45330952Y-136669640D02*
X45235714Y-136717259D01*
X45235714Y-136717259D02*
X45188095Y-136764878D01*
X45188095Y-136764878D02*
X45140476Y-136860116D01*
X45140476Y-136860116D02*
X45140476Y-137050592D01*
X45140476Y-137050592D02*
X45188095Y-137145830D01*
X45188095Y-137145830D02*
X45235714Y-137193450D01*
X45235714Y-137193450D02*
X45330952Y-137241069D01*
X45330952Y-137241069D02*
X45521428Y-137241069D01*
X45521428Y-137241069D02*
X45616666Y-137193450D01*
X45616666Y-137193450D02*
X45664285Y-137145830D01*
X45664285Y-137145830D02*
X45711904Y-137050592D01*
X45711904Y-137050592D02*
X45711904Y-136860116D01*
X45711904Y-136860116D02*
X45664285Y-136764878D01*
X45664285Y-136764878D02*
X45616666Y-136717259D01*
X45616666Y-136717259D02*
X45521428Y-136669640D01*
X40378095Y-137561069D02*
X40378095Y-136561069D01*
X40949523Y-137561069D02*
X40520952Y-136989640D01*
X40949523Y-136561069D02*
X40378095Y-137132497D01*
X62444464Y-156291069D02*
X62444464Y-155291069D01*
X62444464Y-155291069D02*
X62682559Y-155291069D01*
X62682559Y-155291069D02*
X62825416Y-155338688D01*
X62825416Y-155338688D02*
X62920654Y-155433926D01*
X62920654Y-155433926D02*
X62968273Y-155529164D01*
X62968273Y-155529164D02*
X63015892Y-155719640D01*
X63015892Y-155719640D02*
X63015892Y-155862497D01*
X63015892Y-155862497D02*
X62968273Y-156052973D01*
X62968273Y-156052973D02*
X62920654Y-156148211D01*
X62920654Y-156148211D02*
X62825416Y-156243450D01*
X62825416Y-156243450D02*
X62682559Y-156291069D01*
X62682559Y-156291069D02*
X62444464Y-156291069D01*
X63349226Y-155291069D02*
X63968273Y-155291069D01*
X63968273Y-155291069D02*
X63634940Y-155672021D01*
X63634940Y-155672021D02*
X63777797Y-155672021D01*
X63777797Y-155672021D02*
X63873035Y-155719640D01*
X63873035Y-155719640D02*
X63920654Y-155767259D01*
X63920654Y-155767259D02*
X63968273Y-155862497D01*
X63968273Y-155862497D02*
X63968273Y-156100592D01*
X63968273Y-156100592D02*
X63920654Y-156195830D01*
X63920654Y-156195830D02*
X63873035Y-156243450D01*
X63873035Y-156243450D02*
X63777797Y-156291069D01*
X63777797Y-156291069D02*
X63492083Y-156291069D01*
X63492083Y-156291069D02*
X63396845Y-156243450D01*
X63396845Y-156243450D02*
X63349226Y-156195830D01*
X64825416Y-155624402D02*
X64825416Y-156291069D01*
X64587321Y-155243450D02*
X64349226Y-155957735D01*
X64349226Y-155957735D02*
X64968273Y-155957735D01*
X59586845Y-156611069D02*
X59586845Y-155611069D01*
X60158273Y-156611069D02*
X59729702Y-156039640D01*
X60158273Y-155611069D02*
X59586845Y-156182497D01*
X141343155Y-175341069D02*
X141343155Y-174341069D01*
X141343155Y-174341069D02*
X141581250Y-174341069D01*
X141581250Y-174341069D02*
X141724107Y-174388688D01*
X141724107Y-174388688D02*
X141819345Y-174483926D01*
X141819345Y-174483926D02*
X141866964Y-174579164D01*
X141866964Y-174579164D02*
X141914583Y-174769640D01*
X141914583Y-174769640D02*
X141914583Y-174912497D01*
X141914583Y-174912497D02*
X141866964Y-175102973D01*
X141866964Y-175102973D02*
X141819345Y-175198211D01*
X141819345Y-175198211D02*
X141724107Y-175293450D01*
X141724107Y-175293450D02*
X141581250Y-175341069D01*
X141581250Y-175341069D02*
X141343155Y-175341069D01*
X142819345Y-174341069D02*
X142343155Y-174341069D01*
X142343155Y-174341069D02*
X142295536Y-174817259D01*
X142295536Y-174817259D02*
X142343155Y-174769640D01*
X142343155Y-174769640D02*
X142438393Y-174722021D01*
X142438393Y-174722021D02*
X142676488Y-174722021D01*
X142676488Y-174722021D02*
X142771726Y-174769640D01*
X142771726Y-174769640D02*
X142819345Y-174817259D01*
X142819345Y-174817259D02*
X142866964Y-174912497D01*
X142866964Y-174912497D02*
X142866964Y-175150592D01*
X142866964Y-175150592D02*
X142819345Y-175245830D01*
X142819345Y-175245830D02*
X142771726Y-175293450D01*
X142771726Y-175293450D02*
X142676488Y-175341069D01*
X142676488Y-175341069D02*
X142438393Y-175341069D01*
X142438393Y-175341069D02*
X142343155Y-175293450D01*
X142343155Y-175293450D02*
X142295536Y-175245830D01*
X138009345Y-175661069D02*
X138009345Y-174661069D01*
X138580773Y-175661069D02*
X138152202Y-175089640D01*
X138580773Y-174661069D02*
X138009345Y-175232497D01*
X24185714Y-99141069D02*
X24185714Y-98141069D01*
X24185714Y-98141069D02*
X24423809Y-98141069D01*
X24423809Y-98141069D02*
X24566666Y-98188688D01*
X24566666Y-98188688D02*
X24661904Y-98283926D01*
X24661904Y-98283926D02*
X24709523Y-98379164D01*
X24709523Y-98379164D02*
X24757142Y-98569640D01*
X24757142Y-98569640D02*
X24757142Y-98712497D01*
X24757142Y-98712497D02*
X24709523Y-98902973D01*
X24709523Y-98902973D02*
X24661904Y-98998211D01*
X24661904Y-98998211D02*
X24566666Y-99093450D01*
X24566666Y-99093450D02*
X24423809Y-99141069D01*
X24423809Y-99141069D02*
X24185714Y-99141069D01*
X25138095Y-98236307D02*
X25185714Y-98188688D01*
X25185714Y-98188688D02*
X25280952Y-98141069D01*
X25280952Y-98141069D02*
X25519047Y-98141069D01*
X25519047Y-98141069D02*
X25614285Y-98188688D01*
X25614285Y-98188688D02*
X25661904Y-98236307D01*
X25661904Y-98236307D02*
X25709523Y-98331545D01*
X25709523Y-98331545D02*
X25709523Y-98426783D01*
X25709523Y-98426783D02*
X25661904Y-98569640D01*
X25661904Y-98569640D02*
X25090476Y-99141069D01*
X25090476Y-99141069D02*
X25709523Y-99141069D01*
X26661904Y-99141069D02*
X26090476Y-99141069D01*
X26376190Y-99141069D02*
X26376190Y-98141069D01*
X26376190Y-98141069D02*
X26280952Y-98283926D01*
X26280952Y-98283926D02*
X26185714Y-98379164D01*
X26185714Y-98379164D02*
X26090476Y-98426783D01*
X21328095Y-99461069D02*
X21328095Y-98461069D01*
X21899523Y-99461069D02*
X21470952Y-98889640D01*
X21899523Y-98461069D02*
X21328095Y-99032497D01*
X100544464Y-175341069D02*
X100544464Y-174341069D01*
X100544464Y-174341069D02*
X100782559Y-174341069D01*
X100782559Y-174341069D02*
X100925416Y-174388688D01*
X100925416Y-174388688D02*
X101020654Y-174483926D01*
X101020654Y-174483926D02*
X101068273Y-174579164D01*
X101068273Y-174579164D02*
X101115892Y-174769640D01*
X101115892Y-174769640D02*
X101115892Y-174912497D01*
X101115892Y-174912497D02*
X101068273Y-175102973D01*
X101068273Y-175102973D02*
X101020654Y-175198211D01*
X101020654Y-175198211D02*
X100925416Y-175293450D01*
X100925416Y-175293450D02*
X100782559Y-175341069D01*
X100782559Y-175341069D02*
X100544464Y-175341069D01*
X101496845Y-174436307D02*
X101544464Y-174388688D01*
X101544464Y-174388688D02*
X101639702Y-174341069D01*
X101639702Y-174341069D02*
X101877797Y-174341069D01*
X101877797Y-174341069D02*
X101973035Y-174388688D01*
X101973035Y-174388688D02*
X102020654Y-174436307D01*
X102020654Y-174436307D02*
X102068273Y-174531545D01*
X102068273Y-174531545D02*
X102068273Y-174626783D01*
X102068273Y-174626783D02*
X102020654Y-174769640D01*
X102020654Y-174769640D02*
X101449226Y-175341069D01*
X101449226Y-175341069D02*
X102068273Y-175341069D01*
X102687321Y-174341069D02*
X102782559Y-174341069D01*
X102782559Y-174341069D02*
X102877797Y-174388688D01*
X102877797Y-174388688D02*
X102925416Y-174436307D01*
X102925416Y-174436307D02*
X102973035Y-174531545D01*
X102973035Y-174531545D02*
X103020654Y-174722021D01*
X103020654Y-174722021D02*
X103020654Y-174960116D01*
X103020654Y-174960116D02*
X102973035Y-175150592D01*
X102973035Y-175150592D02*
X102925416Y-175245830D01*
X102925416Y-175245830D02*
X102877797Y-175293450D01*
X102877797Y-175293450D02*
X102782559Y-175341069D01*
X102782559Y-175341069D02*
X102687321Y-175341069D01*
X102687321Y-175341069D02*
X102592083Y-175293450D01*
X102592083Y-175293450D02*
X102544464Y-175245830D01*
X102544464Y-175245830D02*
X102496845Y-175150592D01*
X102496845Y-175150592D02*
X102449226Y-174960116D01*
X102449226Y-174960116D02*
X102449226Y-174722021D01*
X102449226Y-174722021D02*
X102496845Y-174531545D01*
X102496845Y-174531545D02*
X102544464Y-174436307D01*
X102544464Y-174436307D02*
X102592083Y-174388688D01*
X102592083Y-174388688D02*
X102687321Y-174341069D01*
X97686845Y-175661069D02*
X97686845Y-174661069D01*
X98258273Y-175661069D02*
X97829702Y-175089640D01*
X98258273Y-174661069D02*
X97686845Y-175232497D01*
X62444464Y-118191069D02*
X62444464Y-117191069D01*
X62444464Y-117191069D02*
X62682559Y-117191069D01*
X62682559Y-117191069D02*
X62825416Y-117238688D01*
X62825416Y-117238688D02*
X62920654Y-117333926D01*
X62920654Y-117333926D02*
X62968273Y-117429164D01*
X62968273Y-117429164D02*
X63015892Y-117619640D01*
X63015892Y-117619640D02*
X63015892Y-117762497D01*
X63015892Y-117762497D02*
X62968273Y-117952973D01*
X62968273Y-117952973D02*
X62920654Y-118048211D01*
X62920654Y-118048211D02*
X62825416Y-118143450D01*
X62825416Y-118143450D02*
X62682559Y-118191069D01*
X62682559Y-118191069D02*
X62444464Y-118191069D01*
X63349226Y-117191069D02*
X63968273Y-117191069D01*
X63968273Y-117191069D02*
X63634940Y-117572021D01*
X63634940Y-117572021D02*
X63777797Y-117572021D01*
X63777797Y-117572021D02*
X63873035Y-117619640D01*
X63873035Y-117619640D02*
X63920654Y-117667259D01*
X63920654Y-117667259D02*
X63968273Y-117762497D01*
X63968273Y-117762497D02*
X63968273Y-118000592D01*
X63968273Y-118000592D02*
X63920654Y-118095830D01*
X63920654Y-118095830D02*
X63873035Y-118143450D01*
X63873035Y-118143450D02*
X63777797Y-118191069D01*
X63777797Y-118191069D02*
X63492083Y-118191069D01*
X63492083Y-118191069D02*
X63396845Y-118143450D01*
X63396845Y-118143450D02*
X63349226Y-118095830D01*
X64349226Y-117286307D02*
X64396845Y-117238688D01*
X64396845Y-117238688D02*
X64492083Y-117191069D01*
X64492083Y-117191069D02*
X64730178Y-117191069D01*
X64730178Y-117191069D02*
X64825416Y-117238688D01*
X64825416Y-117238688D02*
X64873035Y-117286307D01*
X64873035Y-117286307D02*
X64920654Y-117381545D01*
X64920654Y-117381545D02*
X64920654Y-117476783D01*
X64920654Y-117476783D02*
X64873035Y-117619640D01*
X64873035Y-117619640D02*
X64301607Y-118191069D01*
X64301607Y-118191069D02*
X64920654Y-118191069D01*
X59586845Y-118511069D02*
X59586845Y-117511069D01*
X60158273Y-118511069D02*
X59729702Y-117939640D01*
X60158273Y-117511069D02*
X59586845Y-118082497D01*
X120070655Y-137241069D02*
X120070655Y-136241069D01*
X120070655Y-136241069D02*
X120308750Y-136241069D01*
X120308750Y-136241069D02*
X120451607Y-136288688D01*
X120451607Y-136288688D02*
X120546845Y-136383926D01*
X120546845Y-136383926D02*
X120594464Y-136479164D01*
X120594464Y-136479164D02*
X120642083Y-136669640D01*
X120642083Y-136669640D02*
X120642083Y-136812497D01*
X120642083Y-136812497D02*
X120594464Y-137002973D01*
X120594464Y-137002973D02*
X120546845Y-137098211D01*
X120546845Y-137098211D02*
X120451607Y-137193450D01*
X120451607Y-137193450D02*
X120308750Y-137241069D01*
X120308750Y-137241069D02*
X120070655Y-137241069D01*
X121213512Y-136669640D02*
X121118274Y-136622021D01*
X121118274Y-136622021D02*
X121070655Y-136574402D01*
X121070655Y-136574402D02*
X121023036Y-136479164D01*
X121023036Y-136479164D02*
X121023036Y-136431545D01*
X121023036Y-136431545D02*
X121070655Y-136336307D01*
X121070655Y-136336307D02*
X121118274Y-136288688D01*
X121118274Y-136288688D02*
X121213512Y-136241069D01*
X121213512Y-136241069D02*
X121403988Y-136241069D01*
X121403988Y-136241069D02*
X121499226Y-136288688D01*
X121499226Y-136288688D02*
X121546845Y-136336307D01*
X121546845Y-136336307D02*
X121594464Y-136431545D01*
X121594464Y-136431545D02*
X121594464Y-136479164D01*
X121594464Y-136479164D02*
X121546845Y-136574402D01*
X121546845Y-136574402D02*
X121499226Y-136622021D01*
X121499226Y-136622021D02*
X121403988Y-136669640D01*
X121403988Y-136669640D02*
X121213512Y-136669640D01*
X121213512Y-136669640D02*
X121118274Y-136717259D01*
X121118274Y-136717259D02*
X121070655Y-136764878D01*
X121070655Y-136764878D02*
X121023036Y-136860116D01*
X121023036Y-136860116D02*
X121023036Y-137050592D01*
X121023036Y-137050592D02*
X121070655Y-137145830D01*
X121070655Y-137145830D02*
X121118274Y-137193450D01*
X121118274Y-137193450D02*
X121213512Y-137241069D01*
X121213512Y-137241069D02*
X121403988Y-137241069D01*
X121403988Y-137241069D02*
X121499226Y-137193450D01*
X121499226Y-137193450D02*
X121546845Y-137145830D01*
X121546845Y-137145830D02*
X121594464Y-137050592D01*
X121594464Y-137050592D02*
X121594464Y-136860116D01*
X121594464Y-136860116D02*
X121546845Y-136764878D01*
X121546845Y-136764878D02*
X121499226Y-136717259D01*
X121499226Y-136717259D02*
X121403988Y-136669640D01*
X116736845Y-137561069D02*
X116736845Y-136561069D01*
X117308273Y-137561069D02*
X116879702Y-136989640D01*
X117308273Y-136561069D02*
X116736845Y-137132497D01*
X43235714Y-175341069D02*
X43235714Y-174341069D01*
X43235714Y-174341069D02*
X43473809Y-174341069D01*
X43473809Y-174341069D02*
X43616666Y-174388688D01*
X43616666Y-174388688D02*
X43711904Y-174483926D01*
X43711904Y-174483926D02*
X43759523Y-174579164D01*
X43759523Y-174579164D02*
X43807142Y-174769640D01*
X43807142Y-174769640D02*
X43807142Y-174912497D01*
X43807142Y-174912497D02*
X43759523Y-175102973D01*
X43759523Y-175102973D02*
X43711904Y-175198211D01*
X43711904Y-175198211D02*
X43616666Y-175293450D01*
X43616666Y-175293450D02*
X43473809Y-175341069D01*
X43473809Y-175341069D02*
X43235714Y-175341069D01*
X44140476Y-174341069D02*
X44759523Y-174341069D01*
X44759523Y-174341069D02*
X44426190Y-174722021D01*
X44426190Y-174722021D02*
X44569047Y-174722021D01*
X44569047Y-174722021D02*
X44664285Y-174769640D01*
X44664285Y-174769640D02*
X44711904Y-174817259D01*
X44711904Y-174817259D02*
X44759523Y-174912497D01*
X44759523Y-174912497D02*
X44759523Y-175150592D01*
X44759523Y-175150592D02*
X44711904Y-175245830D01*
X44711904Y-175245830D02*
X44664285Y-175293450D01*
X44664285Y-175293450D02*
X44569047Y-175341069D01*
X44569047Y-175341069D02*
X44283333Y-175341069D01*
X44283333Y-175341069D02*
X44188095Y-175293450D01*
X44188095Y-175293450D02*
X44140476Y-175245830D01*
X45378571Y-174341069D02*
X45473809Y-174341069D01*
X45473809Y-174341069D02*
X45569047Y-174388688D01*
X45569047Y-174388688D02*
X45616666Y-174436307D01*
X45616666Y-174436307D02*
X45664285Y-174531545D01*
X45664285Y-174531545D02*
X45711904Y-174722021D01*
X45711904Y-174722021D02*
X45711904Y-174960116D01*
X45711904Y-174960116D02*
X45664285Y-175150592D01*
X45664285Y-175150592D02*
X45616666Y-175245830D01*
X45616666Y-175245830D02*
X45569047Y-175293450D01*
X45569047Y-175293450D02*
X45473809Y-175341069D01*
X45473809Y-175341069D02*
X45378571Y-175341069D01*
X45378571Y-175341069D02*
X45283333Y-175293450D01*
X45283333Y-175293450D02*
X45235714Y-175245830D01*
X45235714Y-175245830D02*
X45188095Y-175150592D01*
X45188095Y-175150592D02*
X45140476Y-174960116D01*
X45140476Y-174960116D02*
X45140476Y-174722021D01*
X45140476Y-174722021D02*
X45188095Y-174531545D01*
X45188095Y-174531545D02*
X45235714Y-174436307D01*
X45235714Y-174436307D02*
X45283333Y-174388688D01*
X45283333Y-174388688D02*
X45378571Y-174341069D01*
X40378095Y-175661069D02*
X40378095Y-174661069D01*
X40949523Y-175661069D02*
X40520952Y-175089640D01*
X40949523Y-174661069D02*
X40378095Y-175232497D01*
X119753155Y-118191069D02*
X119753155Y-117191069D01*
X119753155Y-117191069D02*
X119991250Y-117191069D01*
X119991250Y-117191069D02*
X120134107Y-117238688D01*
X120134107Y-117238688D02*
X120229345Y-117333926D01*
X120229345Y-117333926D02*
X120276964Y-117429164D01*
X120276964Y-117429164D02*
X120324583Y-117619640D01*
X120324583Y-117619640D02*
X120324583Y-117762497D01*
X120324583Y-117762497D02*
X120276964Y-117952973D01*
X120276964Y-117952973D02*
X120229345Y-118048211D01*
X120229345Y-118048211D02*
X120134107Y-118143450D01*
X120134107Y-118143450D02*
X119991250Y-118191069D01*
X119991250Y-118191069D02*
X119753155Y-118191069D01*
X120657917Y-117191069D02*
X121324583Y-117191069D01*
X121324583Y-117191069D02*
X120896012Y-118191069D01*
X116419345Y-118511069D02*
X116419345Y-117511069D01*
X116990773Y-118511069D02*
X116562202Y-117939640D01*
X116990773Y-117511069D02*
X116419345Y-118082497D01*
X24185714Y-156291069D02*
X24185714Y-155291069D01*
X24185714Y-155291069D02*
X24423809Y-155291069D01*
X24423809Y-155291069D02*
X24566666Y-155338688D01*
X24566666Y-155338688D02*
X24661904Y-155433926D01*
X24661904Y-155433926D02*
X24709523Y-155529164D01*
X24709523Y-155529164D02*
X24757142Y-155719640D01*
X24757142Y-155719640D02*
X24757142Y-155862497D01*
X24757142Y-155862497D02*
X24709523Y-156052973D01*
X24709523Y-156052973D02*
X24661904Y-156148211D01*
X24661904Y-156148211D02*
X24566666Y-156243450D01*
X24566666Y-156243450D02*
X24423809Y-156291069D01*
X24423809Y-156291069D02*
X24185714Y-156291069D01*
X25138095Y-155386307D02*
X25185714Y-155338688D01*
X25185714Y-155338688D02*
X25280952Y-155291069D01*
X25280952Y-155291069D02*
X25519047Y-155291069D01*
X25519047Y-155291069D02*
X25614285Y-155338688D01*
X25614285Y-155338688D02*
X25661904Y-155386307D01*
X25661904Y-155386307D02*
X25709523Y-155481545D01*
X25709523Y-155481545D02*
X25709523Y-155576783D01*
X25709523Y-155576783D02*
X25661904Y-155719640D01*
X25661904Y-155719640D02*
X25090476Y-156291069D01*
X25090476Y-156291069D02*
X25709523Y-156291069D01*
X26566666Y-155624402D02*
X26566666Y-156291069D01*
X26328571Y-155243450D02*
X26090476Y-155957735D01*
X26090476Y-155957735D02*
X26709523Y-155957735D01*
X21328095Y-156611069D02*
X21328095Y-155611069D01*
X21899523Y-156611069D02*
X21470952Y-156039640D01*
X21899523Y-155611069D02*
X21328095Y-156182497D01*
X140549405Y-137241069D02*
X140549405Y-136241069D01*
X140549405Y-136241069D02*
X140787500Y-136241069D01*
X140787500Y-136241069D02*
X140930357Y-136288688D01*
X140930357Y-136288688D02*
X141025595Y-136383926D01*
X141025595Y-136383926D02*
X141073214Y-136479164D01*
X141073214Y-136479164D02*
X141120833Y-136669640D01*
X141120833Y-136669640D02*
X141120833Y-136812497D01*
X141120833Y-136812497D02*
X141073214Y-137002973D01*
X141073214Y-137002973D02*
X141025595Y-137098211D01*
X141025595Y-137098211D02*
X140930357Y-137193450D01*
X140930357Y-137193450D02*
X140787500Y-137241069D01*
X140787500Y-137241069D02*
X140549405Y-137241069D01*
X141454167Y-136241069D02*
X142073214Y-136241069D01*
X142073214Y-136241069D02*
X141739881Y-136622021D01*
X141739881Y-136622021D02*
X141882738Y-136622021D01*
X141882738Y-136622021D02*
X141977976Y-136669640D01*
X141977976Y-136669640D02*
X142025595Y-136717259D01*
X142025595Y-136717259D02*
X142073214Y-136812497D01*
X142073214Y-136812497D02*
X142073214Y-137050592D01*
X142073214Y-137050592D02*
X142025595Y-137145830D01*
X142025595Y-137145830D02*
X141977976Y-137193450D01*
X141977976Y-137193450D02*
X141882738Y-137241069D01*
X141882738Y-137241069D02*
X141597024Y-137241069D01*
X141597024Y-137241069D02*
X141501786Y-137193450D01*
X141501786Y-137193450D02*
X141454167Y-137145830D01*
X137215595Y-137561069D02*
X137215595Y-136561069D01*
X137787023Y-137561069D02*
X137358452Y-136989640D01*
X137787023Y-136561069D02*
X137215595Y-137132497D01*
X141343155Y-156291069D02*
X141343155Y-155291069D01*
X141343155Y-155291069D02*
X141581250Y-155291069D01*
X141581250Y-155291069D02*
X141724107Y-155338688D01*
X141724107Y-155338688D02*
X141819345Y-155433926D01*
X141819345Y-155433926D02*
X141866964Y-155529164D01*
X141866964Y-155529164D02*
X141914583Y-155719640D01*
X141914583Y-155719640D02*
X141914583Y-155862497D01*
X141914583Y-155862497D02*
X141866964Y-156052973D01*
X141866964Y-156052973D02*
X141819345Y-156148211D01*
X141819345Y-156148211D02*
X141724107Y-156243450D01*
X141724107Y-156243450D02*
X141581250Y-156291069D01*
X141581250Y-156291069D02*
X141343155Y-156291069D01*
X142771726Y-155624402D02*
X142771726Y-156291069D01*
X142533631Y-155243450D02*
X142295536Y-155957735D01*
X142295536Y-155957735D02*
X142914583Y-155957735D01*
X138009345Y-156611069D02*
X138009345Y-155611069D01*
X138580773Y-156611069D02*
X138152202Y-156039640D01*
X138580773Y-155611069D02*
X138009345Y-156182497D01*
X81335714Y-156291069D02*
X81335714Y-155291069D01*
X81335714Y-155291069D02*
X81573809Y-155291069D01*
X81573809Y-155291069D02*
X81716666Y-155338688D01*
X81716666Y-155338688D02*
X81811904Y-155433926D01*
X81811904Y-155433926D02*
X81859523Y-155529164D01*
X81859523Y-155529164D02*
X81907142Y-155719640D01*
X81907142Y-155719640D02*
X81907142Y-155862497D01*
X81907142Y-155862497D02*
X81859523Y-156052973D01*
X81859523Y-156052973D02*
X81811904Y-156148211D01*
X81811904Y-156148211D02*
X81716666Y-156243450D01*
X81716666Y-156243450D02*
X81573809Y-156291069D01*
X81573809Y-156291069D02*
X81335714Y-156291069D01*
X82859523Y-156291069D02*
X82288095Y-156291069D01*
X82573809Y-156291069D02*
X82573809Y-155291069D01*
X82573809Y-155291069D02*
X82478571Y-155433926D01*
X82478571Y-155433926D02*
X82383333Y-155529164D01*
X82383333Y-155529164D02*
X82288095Y-155576783D01*
X83716666Y-155624402D02*
X83716666Y-156291069D01*
X83478571Y-155243450D02*
X83240476Y-155957735D01*
X83240476Y-155957735D02*
X83859523Y-155957735D01*
X78478095Y-156611069D02*
X78478095Y-155611069D01*
X79049523Y-156611069D02*
X78620952Y-156039640D01*
X79049523Y-155611069D02*
X78478095Y-156182497D01*
X62444464Y-137241069D02*
X62444464Y-136241069D01*
X62444464Y-136241069D02*
X62682559Y-136241069D01*
X62682559Y-136241069D02*
X62825416Y-136288688D01*
X62825416Y-136288688D02*
X62920654Y-136383926D01*
X62920654Y-136383926D02*
X62968273Y-136479164D01*
X62968273Y-136479164D02*
X63015892Y-136669640D01*
X63015892Y-136669640D02*
X63015892Y-136812497D01*
X63015892Y-136812497D02*
X62968273Y-137002973D01*
X62968273Y-137002973D02*
X62920654Y-137098211D01*
X62920654Y-137098211D02*
X62825416Y-137193450D01*
X62825416Y-137193450D02*
X62682559Y-137241069D01*
X62682559Y-137241069D02*
X62444464Y-137241069D01*
X63349226Y-136241069D02*
X63968273Y-136241069D01*
X63968273Y-136241069D02*
X63634940Y-136622021D01*
X63634940Y-136622021D02*
X63777797Y-136622021D01*
X63777797Y-136622021D02*
X63873035Y-136669640D01*
X63873035Y-136669640D02*
X63920654Y-136717259D01*
X63920654Y-136717259D02*
X63968273Y-136812497D01*
X63968273Y-136812497D02*
X63968273Y-137050592D01*
X63968273Y-137050592D02*
X63920654Y-137145830D01*
X63920654Y-137145830D02*
X63873035Y-137193450D01*
X63873035Y-137193450D02*
X63777797Y-137241069D01*
X63777797Y-137241069D02*
X63492083Y-137241069D01*
X63492083Y-137241069D02*
X63396845Y-137193450D01*
X63396845Y-137193450D02*
X63349226Y-137145830D01*
X64301607Y-136241069D02*
X64920654Y-136241069D01*
X64920654Y-136241069D02*
X64587321Y-136622021D01*
X64587321Y-136622021D02*
X64730178Y-136622021D01*
X64730178Y-136622021D02*
X64825416Y-136669640D01*
X64825416Y-136669640D02*
X64873035Y-136717259D01*
X64873035Y-136717259D02*
X64920654Y-136812497D01*
X64920654Y-136812497D02*
X64920654Y-137050592D01*
X64920654Y-137050592D02*
X64873035Y-137145830D01*
X64873035Y-137145830D02*
X64825416Y-137193450D01*
X64825416Y-137193450D02*
X64730178Y-137241069D01*
X64730178Y-137241069D02*
X64444464Y-137241069D01*
X64444464Y-137241069D02*
X64349226Y-137193450D01*
X64349226Y-137193450D02*
X64301607Y-137145830D01*
X59586845Y-137561069D02*
X59586845Y-136561069D01*
X60158273Y-137561069D02*
X59729702Y-136989640D01*
X60158273Y-136561069D02*
X59586845Y-137132497D01*
X81335714Y-137241069D02*
X81335714Y-136241069D01*
X81335714Y-136241069D02*
X81573809Y-136241069D01*
X81573809Y-136241069D02*
X81716666Y-136288688D01*
X81716666Y-136288688D02*
X81811904Y-136383926D01*
X81811904Y-136383926D02*
X81859523Y-136479164D01*
X81859523Y-136479164D02*
X81907142Y-136669640D01*
X81907142Y-136669640D02*
X81907142Y-136812497D01*
X81907142Y-136812497D02*
X81859523Y-137002973D01*
X81859523Y-137002973D02*
X81811904Y-137098211D01*
X81811904Y-137098211D02*
X81716666Y-137193450D01*
X81716666Y-137193450D02*
X81573809Y-137241069D01*
X81573809Y-137241069D02*
X81335714Y-137241069D01*
X82859523Y-137241069D02*
X82288095Y-137241069D01*
X82573809Y-137241069D02*
X82573809Y-136241069D01*
X82573809Y-136241069D02*
X82478571Y-136383926D01*
X82478571Y-136383926D02*
X82383333Y-136479164D01*
X82383333Y-136479164D02*
X82288095Y-136526783D01*
X83192857Y-136241069D02*
X83811904Y-136241069D01*
X83811904Y-136241069D02*
X83478571Y-136622021D01*
X83478571Y-136622021D02*
X83621428Y-136622021D01*
X83621428Y-136622021D02*
X83716666Y-136669640D01*
X83716666Y-136669640D02*
X83764285Y-136717259D01*
X83764285Y-136717259D02*
X83811904Y-136812497D01*
X83811904Y-136812497D02*
X83811904Y-137050592D01*
X83811904Y-137050592D02*
X83764285Y-137145830D01*
X83764285Y-137145830D02*
X83716666Y-137193450D01*
X83716666Y-137193450D02*
X83621428Y-137241069D01*
X83621428Y-137241069D02*
X83335714Y-137241069D01*
X83335714Y-137241069D02*
X83240476Y-137193450D01*
X83240476Y-137193450D02*
X83192857Y-137145830D01*
X78478095Y-137561069D02*
X78478095Y-136561069D01*
X79049523Y-137561069D02*
X78620952Y-136989640D01*
X79049523Y-136561069D02*
X78478095Y-137132497D01*
X62285714Y-99141069D02*
X62285714Y-98141069D01*
X62285714Y-98141069D02*
X62523809Y-98141069D01*
X62523809Y-98141069D02*
X62666666Y-98188688D01*
X62666666Y-98188688D02*
X62761904Y-98283926D01*
X62761904Y-98283926D02*
X62809523Y-98379164D01*
X62809523Y-98379164D02*
X62857142Y-98569640D01*
X62857142Y-98569640D02*
X62857142Y-98712497D01*
X62857142Y-98712497D02*
X62809523Y-98902973D01*
X62809523Y-98902973D02*
X62761904Y-98998211D01*
X62761904Y-98998211D02*
X62666666Y-99093450D01*
X62666666Y-99093450D02*
X62523809Y-99141069D01*
X62523809Y-99141069D02*
X62285714Y-99141069D01*
X63190476Y-98141069D02*
X63809523Y-98141069D01*
X63809523Y-98141069D02*
X63476190Y-98522021D01*
X63476190Y-98522021D02*
X63619047Y-98522021D01*
X63619047Y-98522021D02*
X63714285Y-98569640D01*
X63714285Y-98569640D02*
X63761904Y-98617259D01*
X63761904Y-98617259D02*
X63809523Y-98712497D01*
X63809523Y-98712497D02*
X63809523Y-98950592D01*
X63809523Y-98950592D02*
X63761904Y-99045830D01*
X63761904Y-99045830D02*
X63714285Y-99093450D01*
X63714285Y-99093450D02*
X63619047Y-99141069D01*
X63619047Y-99141069D02*
X63333333Y-99141069D01*
X63333333Y-99141069D02*
X63238095Y-99093450D01*
X63238095Y-99093450D02*
X63190476Y-99045830D01*
X64761904Y-99141069D02*
X64190476Y-99141069D01*
X64476190Y-99141069D02*
X64476190Y-98141069D01*
X64476190Y-98141069D02*
X64380952Y-98283926D01*
X64380952Y-98283926D02*
X64285714Y-98379164D01*
X64285714Y-98379164D02*
X64190476Y-98426783D01*
X59428095Y-99461069D02*
X59428095Y-98461069D01*
X59999523Y-99461069D02*
X59570952Y-98889640D01*
X59999523Y-98461069D02*
X59428095Y-99032497D01*
X100385714Y-156291069D02*
X100385714Y-155291069D01*
X100385714Y-155291069D02*
X100623809Y-155291069D01*
X100623809Y-155291069D02*
X100766666Y-155338688D01*
X100766666Y-155338688D02*
X100861904Y-155433926D01*
X100861904Y-155433926D02*
X100909523Y-155529164D01*
X100909523Y-155529164D02*
X100957142Y-155719640D01*
X100957142Y-155719640D02*
X100957142Y-155862497D01*
X100957142Y-155862497D02*
X100909523Y-156052973D01*
X100909523Y-156052973D02*
X100861904Y-156148211D01*
X100861904Y-156148211D02*
X100766666Y-156243450D01*
X100766666Y-156243450D02*
X100623809Y-156291069D01*
X100623809Y-156291069D02*
X100385714Y-156291069D01*
X101909523Y-156291069D02*
X101338095Y-156291069D01*
X101623809Y-156291069D02*
X101623809Y-155291069D01*
X101623809Y-155291069D02*
X101528571Y-155433926D01*
X101528571Y-155433926D02*
X101433333Y-155529164D01*
X101433333Y-155529164D02*
X101338095Y-155576783D01*
X102385714Y-156291069D02*
X102576190Y-156291069D01*
X102576190Y-156291069D02*
X102671428Y-156243450D01*
X102671428Y-156243450D02*
X102719047Y-156195830D01*
X102719047Y-156195830D02*
X102814285Y-156052973D01*
X102814285Y-156052973D02*
X102861904Y-155862497D01*
X102861904Y-155862497D02*
X102861904Y-155481545D01*
X102861904Y-155481545D02*
X102814285Y-155386307D01*
X102814285Y-155386307D02*
X102766666Y-155338688D01*
X102766666Y-155338688D02*
X102671428Y-155291069D01*
X102671428Y-155291069D02*
X102480952Y-155291069D01*
X102480952Y-155291069D02*
X102385714Y-155338688D01*
X102385714Y-155338688D02*
X102338095Y-155386307D01*
X102338095Y-155386307D02*
X102290476Y-155481545D01*
X102290476Y-155481545D02*
X102290476Y-155719640D01*
X102290476Y-155719640D02*
X102338095Y-155814878D01*
X102338095Y-155814878D02*
X102385714Y-155862497D01*
X102385714Y-155862497D02*
X102480952Y-155910116D01*
X102480952Y-155910116D02*
X102671428Y-155910116D01*
X102671428Y-155910116D02*
X102766666Y-155862497D01*
X102766666Y-155862497D02*
X102814285Y-155814878D01*
X102814285Y-155814878D02*
X102861904Y-155719640D01*
X97528095Y-156611069D02*
X97528095Y-155611069D01*
X98099523Y-156611069D02*
X97670952Y-156039640D01*
X98099523Y-155611069D02*
X97528095Y-156182497D01*
X43235714Y-156291069D02*
X43235714Y-155291069D01*
X43235714Y-155291069D02*
X43473809Y-155291069D01*
X43473809Y-155291069D02*
X43616666Y-155338688D01*
X43616666Y-155338688D02*
X43711904Y-155433926D01*
X43711904Y-155433926D02*
X43759523Y-155529164D01*
X43759523Y-155529164D02*
X43807142Y-155719640D01*
X43807142Y-155719640D02*
X43807142Y-155862497D01*
X43807142Y-155862497D02*
X43759523Y-156052973D01*
X43759523Y-156052973D02*
X43711904Y-156148211D01*
X43711904Y-156148211D02*
X43616666Y-156243450D01*
X43616666Y-156243450D02*
X43473809Y-156291069D01*
X43473809Y-156291069D02*
X43235714Y-156291069D01*
X44188095Y-155386307D02*
X44235714Y-155338688D01*
X44235714Y-155338688D02*
X44330952Y-155291069D01*
X44330952Y-155291069D02*
X44569047Y-155291069D01*
X44569047Y-155291069D02*
X44664285Y-155338688D01*
X44664285Y-155338688D02*
X44711904Y-155386307D01*
X44711904Y-155386307D02*
X44759523Y-155481545D01*
X44759523Y-155481545D02*
X44759523Y-155576783D01*
X44759523Y-155576783D02*
X44711904Y-155719640D01*
X44711904Y-155719640D02*
X44140476Y-156291069D01*
X44140476Y-156291069D02*
X44759523Y-156291069D01*
X45235714Y-156291069D02*
X45426190Y-156291069D01*
X45426190Y-156291069D02*
X45521428Y-156243450D01*
X45521428Y-156243450D02*
X45569047Y-156195830D01*
X45569047Y-156195830D02*
X45664285Y-156052973D01*
X45664285Y-156052973D02*
X45711904Y-155862497D01*
X45711904Y-155862497D02*
X45711904Y-155481545D01*
X45711904Y-155481545D02*
X45664285Y-155386307D01*
X45664285Y-155386307D02*
X45616666Y-155338688D01*
X45616666Y-155338688D02*
X45521428Y-155291069D01*
X45521428Y-155291069D02*
X45330952Y-155291069D01*
X45330952Y-155291069D02*
X45235714Y-155338688D01*
X45235714Y-155338688D02*
X45188095Y-155386307D01*
X45188095Y-155386307D02*
X45140476Y-155481545D01*
X45140476Y-155481545D02*
X45140476Y-155719640D01*
X45140476Y-155719640D02*
X45188095Y-155814878D01*
X45188095Y-155814878D02*
X45235714Y-155862497D01*
X45235714Y-155862497D02*
X45330952Y-155910116D01*
X45330952Y-155910116D02*
X45521428Y-155910116D01*
X45521428Y-155910116D02*
X45616666Y-155862497D01*
X45616666Y-155862497D02*
X45664285Y-155814878D01*
X45664285Y-155814878D02*
X45711904Y-155719640D01*
X40378095Y-156611069D02*
X40378095Y-155611069D01*
X40949523Y-156611069D02*
X40520952Y-156039640D01*
X40949523Y-155611069D02*
X40378095Y-156182497D01*
X119911905Y-156291069D02*
X119911905Y-155291069D01*
X119911905Y-155291069D02*
X120150000Y-155291069D01*
X120150000Y-155291069D02*
X120292857Y-155338688D01*
X120292857Y-155338688D02*
X120388095Y-155433926D01*
X120388095Y-155433926D02*
X120435714Y-155529164D01*
X120435714Y-155529164D02*
X120483333Y-155719640D01*
X120483333Y-155719640D02*
X120483333Y-155862497D01*
X120483333Y-155862497D02*
X120435714Y-156052973D01*
X120435714Y-156052973D02*
X120388095Y-156148211D01*
X120388095Y-156148211D02*
X120292857Y-156243450D01*
X120292857Y-156243450D02*
X120150000Y-156291069D01*
X120150000Y-156291069D02*
X119911905Y-156291069D01*
X120959524Y-156291069D02*
X121150000Y-156291069D01*
X121150000Y-156291069D02*
X121245238Y-156243450D01*
X121245238Y-156243450D02*
X121292857Y-156195830D01*
X121292857Y-156195830D02*
X121388095Y-156052973D01*
X121388095Y-156052973D02*
X121435714Y-155862497D01*
X121435714Y-155862497D02*
X121435714Y-155481545D01*
X121435714Y-155481545D02*
X121388095Y-155386307D01*
X121388095Y-155386307D02*
X121340476Y-155338688D01*
X121340476Y-155338688D02*
X121245238Y-155291069D01*
X121245238Y-155291069D02*
X121054762Y-155291069D01*
X121054762Y-155291069D02*
X120959524Y-155338688D01*
X120959524Y-155338688D02*
X120911905Y-155386307D01*
X120911905Y-155386307D02*
X120864286Y-155481545D01*
X120864286Y-155481545D02*
X120864286Y-155719640D01*
X120864286Y-155719640D02*
X120911905Y-155814878D01*
X120911905Y-155814878D02*
X120959524Y-155862497D01*
X120959524Y-155862497D02*
X121054762Y-155910116D01*
X121054762Y-155910116D02*
X121245238Y-155910116D01*
X121245238Y-155910116D02*
X121340476Y-155862497D01*
X121340476Y-155862497D02*
X121388095Y-155814878D01*
X121388095Y-155814878D02*
X121435714Y-155719640D01*
X116578095Y-156611069D02*
X116578095Y-155611069D01*
X117149523Y-156611069D02*
X116720952Y-156039640D01*
X117149523Y-155611069D02*
X116578095Y-156182497D01*
X100544464Y-99141069D02*
X100544464Y-98141069D01*
X100544464Y-98141069D02*
X100782559Y-98141069D01*
X100782559Y-98141069D02*
X100925416Y-98188688D01*
X100925416Y-98188688D02*
X101020654Y-98283926D01*
X101020654Y-98283926D02*
X101068273Y-98379164D01*
X101068273Y-98379164D02*
X101115892Y-98569640D01*
X101115892Y-98569640D02*
X101115892Y-98712497D01*
X101115892Y-98712497D02*
X101068273Y-98902973D01*
X101068273Y-98902973D02*
X101020654Y-98998211D01*
X101020654Y-98998211D02*
X100925416Y-99093450D01*
X100925416Y-99093450D02*
X100782559Y-99141069D01*
X100782559Y-99141069D02*
X100544464Y-99141069D01*
X102068273Y-99141069D02*
X101496845Y-99141069D01*
X101782559Y-99141069D02*
X101782559Y-98141069D01*
X101782559Y-98141069D02*
X101687321Y-98283926D01*
X101687321Y-98283926D02*
X101592083Y-98379164D01*
X101592083Y-98379164D02*
X101496845Y-98426783D01*
X102925416Y-98141069D02*
X102734940Y-98141069D01*
X102734940Y-98141069D02*
X102639702Y-98188688D01*
X102639702Y-98188688D02*
X102592083Y-98236307D01*
X102592083Y-98236307D02*
X102496845Y-98379164D01*
X102496845Y-98379164D02*
X102449226Y-98569640D01*
X102449226Y-98569640D02*
X102449226Y-98950592D01*
X102449226Y-98950592D02*
X102496845Y-99045830D01*
X102496845Y-99045830D02*
X102544464Y-99093450D01*
X102544464Y-99093450D02*
X102639702Y-99141069D01*
X102639702Y-99141069D02*
X102830178Y-99141069D01*
X102830178Y-99141069D02*
X102925416Y-99093450D01*
X102925416Y-99093450D02*
X102973035Y-99045830D01*
X102973035Y-99045830D02*
X103020654Y-98950592D01*
X103020654Y-98950592D02*
X103020654Y-98712497D01*
X103020654Y-98712497D02*
X102973035Y-98617259D01*
X102973035Y-98617259D02*
X102925416Y-98569640D01*
X102925416Y-98569640D02*
X102830178Y-98522021D01*
X102830178Y-98522021D02*
X102639702Y-98522021D01*
X102639702Y-98522021D02*
X102544464Y-98569640D01*
X102544464Y-98569640D02*
X102496845Y-98617259D01*
X102496845Y-98617259D02*
X102449226Y-98712497D01*
X97686845Y-99461069D02*
X97686845Y-98461069D01*
X98258273Y-99461069D02*
X97829702Y-98889640D01*
X98258273Y-98461069D02*
X97686845Y-99032497D01*
X141343155Y-118191069D02*
X141343155Y-117191069D01*
X141343155Y-117191069D02*
X141581250Y-117191069D01*
X141581250Y-117191069D02*
X141724107Y-117238688D01*
X141724107Y-117238688D02*
X141819345Y-117333926D01*
X141819345Y-117333926D02*
X141866964Y-117429164D01*
X141866964Y-117429164D02*
X141914583Y-117619640D01*
X141914583Y-117619640D02*
X141914583Y-117762497D01*
X141914583Y-117762497D02*
X141866964Y-117952973D01*
X141866964Y-117952973D02*
X141819345Y-118048211D01*
X141819345Y-118048211D02*
X141724107Y-118143450D01*
X141724107Y-118143450D02*
X141581250Y-118191069D01*
X141581250Y-118191069D02*
X141343155Y-118191069D01*
X142295536Y-117286307D02*
X142343155Y-117238688D01*
X142343155Y-117238688D02*
X142438393Y-117191069D01*
X142438393Y-117191069D02*
X142676488Y-117191069D01*
X142676488Y-117191069D02*
X142771726Y-117238688D01*
X142771726Y-117238688D02*
X142819345Y-117286307D01*
X142819345Y-117286307D02*
X142866964Y-117381545D01*
X142866964Y-117381545D02*
X142866964Y-117476783D01*
X142866964Y-117476783D02*
X142819345Y-117619640D01*
X142819345Y-117619640D02*
X142247917Y-118191069D01*
X142247917Y-118191069D02*
X142866964Y-118191069D01*
X138009345Y-118511069D02*
X138009345Y-117511069D01*
X138580773Y-118511069D02*
X138152202Y-117939640D01*
X138580773Y-117511069D02*
X138009345Y-118082497D01*
X100385714Y-137241069D02*
X100385714Y-136241069D01*
X100385714Y-136241069D02*
X100623809Y-136241069D01*
X100623809Y-136241069D02*
X100766666Y-136288688D01*
X100766666Y-136288688D02*
X100861904Y-136383926D01*
X100861904Y-136383926D02*
X100909523Y-136479164D01*
X100909523Y-136479164D02*
X100957142Y-136669640D01*
X100957142Y-136669640D02*
X100957142Y-136812497D01*
X100957142Y-136812497D02*
X100909523Y-137002973D01*
X100909523Y-137002973D02*
X100861904Y-137098211D01*
X100861904Y-137098211D02*
X100766666Y-137193450D01*
X100766666Y-137193450D02*
X100623809Y-137241069D01*
X100623809Y-137241069D02*
X100385714Y-137241069D01*
X101909523Y-137241069D02*
X101338095Y-137241069D01*
X101623809Y-137241069D02*
X101623809Y-136241069D01*
X101623809Y-136241069D02*
X101528571Y-136383926D01*
X101528571Y-136383926D02*
X101433333Y-136479164D01*
X101433333Y-136479164D02*
X101338095Y-136526783D01*
X102480952Y-136669640D02*
X102385714Y-136622021D01*
X102385714Y-136622021D02*
X102338095Y-136574402D01*
X102338095Y-136574402D02*
X102290476Y-136479164D01*
X102290476Y-136479164D02*
X102290476Y-136431545D01*
X102290476Y-136431545D02*
X102338095Y-136336307D01*
X102338095Y-136336307D02*
X102385714Y-136288688D01*
X102385714Y-136288688D02*
X102480952Y-136241069D01*
X102480952Y-136241069D02*
X102671428Y-136241069D01*
X102671428Y-136241069D02*
X102766666Y-136288688D01*
X102766666Y-136288688D02*
X102814285Y-136336307D01*
X102814285Y-136336307D02*
X102861904Y-136431545D01*
X102861904Y-136431545D02*
X102861904Y-136479164D01*
X102861904Y-136479164D02*
X102814285Y-136574402D01*
X102814285Y-136574402D02*
X102766666Y-136622021D01*
X102766666Y-136622021D02*
X102671428Y-136669640D01*
X102671428Y-136669640D02*
X102480952Y-136669640D01*
X102480952Y-136669640D02*
X102385714Y-136717259D01*
X102385714Y-136717259D02*
X102338095Y-136764878D01*
X102338095Y-136764878D02*
X102290476Y-136860116D01*
X102290476Y-136860116D02*
X102290476Y-137050592D01*
X102290476Y-137050592D02*
X102338095Y-137145830D01*
X102338095Y-137145830D02*
X102385714Y-137193450D01*
X102385714Y-137193450D02*
X102480952Y-137241069D01*
X102480952Y-137241069D02*
X102671428Y-137241069D01*
X102671428Y-137241069D02*
X102766666Y-137193450D01*
X102766666Y-137193450D02*
X102814285Y-137145830D01*
X102814285Y-137145830D02*
X102861904Y-137050592D01*
X102861904Y-137050592D02*
X102861904Y-136860116D01*
X102861904Y-136860116D02*
X102814285Y-136764878D01*
X102814285Y-136764878D02*
X102766666Y-136717259D01*
X102766666Y-136717259D02*
X102671428Y-136669640D01*
X97528095Y-137561069D02*
X97528095Y-136561069D01*
X98099523Y-137561069D02*
X97670952Y-136989640D01*
X98099523Y-136561069D02*
X97528095Y-137132497D01*
X81335714Y-175341069D02*
X81335714Y-174341069D01*
X81335714Y-174341069D02*
X81573809Y-174341069D01*
X81573809Y-174341069D02*
X81716666Y-174388688D01*
X81716666Y-174388688D02*
X81811904Y-174483926D01*
X81811904Y-174483926D02*
X81859523Y-174579164D01*
X81859523Y-174579164D02*
X81907142Y-174769640D01*
X81907142Y-174769640D02*
X81907142Y-174912497D01*
X81907142Y-174912497D02*
X81859523Y-175102973D01*
X81859523Y-175102973D02*
X81811904Y-175198211D01*
X81811904Y-175198211D02*
X81716666Y-175293450D01*
X81716666Y-175293450D02*
X81573809Y-175341069D01*
X81573809Y-175341069D02*
X81335714Y-175341069D01*
X82859523Y-175341069D02*
X82288095Y-175341069D01*
X82573809Y-175341069D02*
X82573809Y-174341069D01*
X82573809Y-174341069D02*
X82478571Y-174483926D01*
X82478571Y-174483926D02*
X82383333Y-174579164D01*
X82383333Y-174579164D02*
X82288095Y-174626783D01*
X83764285Y-174341069D02*
X83288095Y-174341069D01*
X83288095Y-174341069D02*
X83240476Y-174817259D01*
X83240476Y-174817259D02*
X83288095Y-174769640D01*
X83288095Y-174769640D02*
X83383333Y-174722021D01*
X83383333Y-174722021D02*
X83621428Y-174722021D01*
X83621428Y-174722021D02*
X83716666Y-174769640D01*
X83716666Y-174769640D02*
X83764285Y-174817259D01*
X83764285Y-174817259D02*
X83811904Y-174912497D01*
X83811904Y-174912497D02*
X83811904Y-175150592D01*
X83811904Y-175150592D02*
X83764285Y-175245830D01*
X83764285Y-175245830D02*
X83716666Y-175293450D01*
X83716666Y-175293450D02*
X83621428Y-175341069D01*
X83621428Y-175341069D02*
X83383333Y-175341069D01*
X83383333Y-175341069D02*
X83288095Y-175293450D01*
X83288095Y-175293450D02*
X83240476Y-175245830D01*
X78478095Y-175661069D02*
X78478095Y-174661069D01*
X79049523Y-175661069D02*
X78620952Y-175089640D01*
X79049523Y-174661069D02*
X78478095Y-175232497D01*
X43235714Y-118191069D02*
X43235714Y-117191069D01*
X43235714Y-117191069D02*
X43473809Y-117191069D01*
X43473809Y-117191069D02*
X43616666Y-117238688D01*
X43616666Y-117238688D02*
X43711904Y-117333926D01*
X43711904Y-117333926D02*
X43759523Y-117429164D01*
X43759523Y-117429164D02*
X43807142Y-117619640D01*
X43807142Y-117619640D02*
X43807142Y-117762497D01*
X43807142Y-117762497D02*
X43759523Y-117952973D01*
X43759523Y-117952973D02*
X43711904Y-118048211D01*
X43711904Y-118048211D02*
X43616666Y-118143450D01*
X43616666Y-118143450D02*
X43473809Y-118191069D01*
X43473809Y-118191069D02*
X43235714Y-118191069D01*
X44188095Y-117286307D02*
X44235714Y-117238688D01*
X44235714Y-117238688D02*
X44330952Y-117191069D01*
X44330952Y-117191069D02*
X44569047Y-117191069D01*
X44569047Y-117191069D02*
X44664285Y-117238688D01*
X44664285Y-117238688D02*
X44711904Y-117286307D01*
X44711904Y-117286307D02*
X44759523Y-117381545D01*
X44759523Y-117381545D02*
X44759523Y-117476783D01*
X44759523Y-117476783D02*
X44711904Y-117619640D01*
X44711904Y-117619640D02*
X44140476Y-118191069D01*
X44140476Y-118191069D02*
X44759523Y-118191069D01*
X45092857Y-117191069D02*
X45759523Y-117191069D01*
X45759523Y-117191069D02*
X45330952Y-118191069D01*
X40378095Y-118511069D02*
X40378095Y-117511069D01*
X40949523Y-118511069D02*
X40520952Y-117939640D01*
X40949523Y-117511069D02*
X40378095Y-118082497D01*
X81335714Y-118191069D02*
X81335714Y-117191069D01*
X81335714Y-117191069D02*
X81573809Y-117191069D01*
X81573809Y-117191069D02*
X81716666Y-117238688D01*
X81716666Y-117238688D02*
X81811904Y-117333926D01*
X81811904Y-117333926D02*
X81859523Y-117429164D01*
X81859523Y-117429164D02*
X81907142Y-117619640D01*
X81907142Y-117619640D02*
X81907142Y-117762497D01*
X81907142Y-117762497D02*
X81859523Y-117952973D01*
X81859523Y-117952973D02*
X81811904Y-118048211D01*
X81811904Y-118048211D02*
X81716666Y-118143450D01*
X81716666Y-118143450D02*
X81573809Y-118191069D01*
X81573809Y-118191069D02*
X81335714Y-118191069D01*
X82859523Y-118191069D02*
X82288095Y-118191069D01*
X82573809Y-118191069D02*
X82573809Y-117191069D01*
X82573809Y-117191069D02*
X82478571Y-117333926D01*
X82478571Y-117333926D02*
X82383333Y-117429164D01*
X82383333Y-117429164D02*
X82288095Y-117476783D01*
X83240476Y-117286307D02*
X83288095Y-117238688D01*
X83288095Y-117238688D02*
X83383333Y-117191069D01*
X83383333Y-117191069D02*
X83621428Y-117191069D01*
X83621428Y-117191069D02*
X83716666Y-117238688D01*
X83716666Y-117238688D02*
X83764285Y-117286307D01*
X83764285Y-117286307D02*
X83811904Y-117381545D01*
X83811904Y-117381545D02*
X83811904Y-117476783D01*
X83811904Y-117476783D02*
X83764285Y-117619640D01*
X83764285Y-117619640D02*
X83192857Y-118191069D01*
X83192857Y-118191069D02*
X83811904Y-118191069D01*
X78478095Y-118511069D02*
X78478095Y-117511069D01*
X79049523Y-118511069D02*
X78620952Y-117939640D01*
X79049523Y-117511069D02*
X78478095Y-118082497D01*
X24185714Y-175341069D02*
X24185714Y-174341069D01*
X24185714Y-174341069D02*
X24423809Y-174341069D01*
X24423809Y-174341069D02*
X24566666Y-174388688D01*
X24566666Y-174388688D02*
X24661904Y-174483926D01*
X24661904Y-174483926D02*
X24709523Y-174579164D01*
X24709523Y-174579164D02*
X24757142Y-174769640D01*
X24757142Y-174769640D02*
X24757142Y-174912497D01*
X24757142Y-174912497D02*
X24709523Y-175102973D01*
X24709523Y-175102973D02*
X24661904Y-175198211D01*
X24661904Y-175198211D02*
X24566666Y-175293450D01*
X24566666Y-175293450D02*
X24423809Y-175341069D01*
X24423809Y-175341069D02*
X24185714Y-175341069D01*
X25138095Y-174436307D02*
X25185714Y-174388688D01*
X25185714Y-174388688D02*
X25280952Y-174341069D01*
X25280952Y-174341069D02*
X25519047Y-174341069D01*
X25519047Y-174341069D02*
X25614285Y-174388688D01*
X25614285Y-174388688D02*
X25661904Y-174436307D01*
X25661904Y-174436307D02*
X25709523Y-174531545D01*
X25709523Y-174531545D02*
X25709523Y-174626783D01*
X25709523Y-174626783D02*
X25661904Y-174769640D01*
X25661904Y-174769640D02*
X25090476Y-175341069D01*
X25090476Y-175341069D02*
X25709523Y-175341069D01*
X26614285Y-174341069D02*
X26138095Y-174341069D01*
X26138095Y-174341069D02*
X26090476Y-174817259D01*
X26090476Y-174817259D02*
X26138095Y-174769640D01*
X26138095Y-174769640D02*
X26233333Y-174722021D01*
X26233333Y-174722021D02*
X26471428Y-174722021D01*
X26471428Y-174722021D02*
X26566666Y-174769640D01*
X26566666Y-174769640D02*
X26614285Y-174817259D01*
X26614285Y-174817259D02*
X26661904Y-174912497D01*
X26661904Y-174912497D02*
X26661904Y-175150592D01*
X26661904Y-175150592D02*
X26614285Y-175245830D01*
X26614285Y-175245830D02*
X26566666Y-175293450D01*
X26566666Y-175293450D02*
X26471428Y-175341069D01*
X26471428Y-175341069D02*
X26233333Y-175341069D01*
X26233333Y-175341069D02*
X26138095Y-175293450D01*
X26138095Y-175293450D02*
X26090476Y-175245830D01*
X21328095Y-175661069D02*
X21328095Y-174661069D01*
X21899523Y-175661069D02*
X21470952Y-175089640D01*
X21899523Y-174661069D02*
X21328095Y-175232497D01*
X24185714Y-118191069D02*
X24185714Y-117191069D01*
X24185714Y-117191069D02*
X24423809Y-117191069D01*
X24423809Y-117191069D02*
X24566666Y-117238688D01*
X24566666Y-117238688D02*
X24661904Y-117333926D01*
X24661904Y-117333926D02*
X24709523Y-117429164D01*
X24709523Y-117429164D02*
X24757142Y-117619640D01*
X24757142Y-117619640D02*
X24757142Y-117762497D01*
X24757142Y-117762497D02*
X24709523Y-117952973D01*
X24709523Y-117952973D02*
X24661904Y-118048211D01*
X24661904Y-118048211D02*
X24566666Y-118143450D01*
X24566666Y-118143450D02*
X24423809Y-118191069D01*
X24423809Y-118191069D02*
X24185714Y-118191069D01*
X25138095Y-117286307D02*
X25185714Y-117238688D01*
X25185714Y-117238688D02*
X25280952Y-117191069D01*
X25280952Y-117191069D02*
X25519047Y-117191069D01*
X25519047Y-117191069D02*
X25614285Y-117238688D01*
X25614285Y-117238688D02*
X25661904Y-117286307D01*
X25661904Y-117286307D02*
X25709523Y-117381545D01*
X25709523Y-117381545D02*
X25709523Y-117476783D01*
X25709523Y-117476783D02*
X25661904Y-117619640D01*
X25661904Y-117619640D02*
X25090476Y-118191069D01*
X25090476Y-118191069D02*
X25709523Y-118191069D01*
X26090476Y-117286307D02*
X26138095Y-117238688D01*
X26138095Y-117238688D02*
X26233333Y-117191069D01*
X26233333Y-117191069D02*
X26471428Y-117191069D01*
X26471428Y-117191069D02*
X26566666Y-117238688D01*
X26566666Y-117238688D02*
X26614285Y-117286307D01*
X26614285Y-117286307D02*
X26661904Y-117381545D01*
X26661904Y-117381545D02*
X26661904Y-117476783D01*
X26661904Y-117476783D02*
X26614285Y-117619640D01*
X26614285Y-117619640D02*
X26042857Y-118191069D01*
X26042857Y-118191069D02*
X26661904Y-118191069D01*
X21328095Y-118511069D02*
X21328095Y-117511069D01*
X21899523Y-118511069D02*
X21470952Y-117939640D01*
X21899523Y-117511069D02*
X21328095Y-118082497D01*
X81494464Y-99141069D02*
X81494464Y-98141069D01*
X81494464Y-98141069D02*
X81732559Y-98141069D01*
X81732559Y-98141069D02*
X81875416Y-98188688D01*
X81875416Y-98188688D02*
X81970654Y-98283926D01*
X81970654Y-98283926D02*
X82018273Y-98379164D01*
X82018273Y-98379164D02*
X82065892Y-98569640D01*
X82065892Y-98569640D02*
X82065892Y-98712497D01*
X82065892Y-98712497D02*
X82018273Y-98902973D01*
X82018273Y-98902973D02*
X81970654Y-98998211D01*
X81970654Y-98998211D02*
X81875416Y-99093450D01*
X81875416Y-99093450D02*
X81732559Y-99141069D01*
X81732559Y-99141069D02*
X81494464Y-99141069D01*
X83018273Y-99141069D02*
X82446845Y-99141069D01*
X82732559Y-99141069D02*
X82732559Y-98141069D01*
X82732559Y-98141069D02*
X82637321Y-98283926D01*
X82637321Y-98283926D02*
X82542083Y-98379164D01*
X82542083Y-98379164D02*
X82446845Y-98426783D01*
X83970654Y-99141069D02*
X83399226Y-99141069D01*
X83684940Y-99141069D02*
X83684940Y-98141069D01*
X83684940Y-98141069D02*
X83589702Y-98283926D01*
X83589702Y-98283926D02*
X83494464Y-98379164D01*
X83494464Y-98379164D02*
X83399226Y-98426783D01*
X78636845Y-99461069D02*
X78636845Y-98461069D01*
X79208273Y-99461069D02*
X78779702Y-98889640D01*
X79208273Y-98461069D02*
X78636845Y-99032497D01*
X24185714Y-137241069D02*
X24185714Y-136241069D01*
X24185714Y-136241069D02*
X24423809Y-136241069D01*
X24423809Y-136241069D02*
X24566666Y-136288688D01*
X24566666Y-136288688D02*
X24661904Y-136383926D01*
X24661904Y-136383926D02*
X24709523Y-136479164D01*
X24709523Y-136479164D02*
X24757142Y-136669640D01*
X24757142Y-136669640D02*
X24757142Y-136812497D01*
X24757142Y-136812497D02*
X24709523Y-137002973D01*
X24709523Y-137002973D02*
X24661904Y-137098211D01*
X24661904Y-137098211D02*
X24566666Y-137193450D01*
X24566666Y-137193450D02*
X24423809Y-137241069D01*
X24423809Y-137241069D02*
X24185714Y-137241069D01*
X25138095Y-136336307D02*
X25185714Y-136288688D01*
X25185714Y-136288688D02*
X25280952Y-136241069D01*
X25280952Y-136241069D02*
X25519047Y-136241069D01*
X25519047Y-136241069D02*
X25614285Y-136288688D01*
X25614285Y-136288688D02*
X25661904Y-136336307D01*
X25661904Y-136336307D02*
X25709523Y-136431545D01*
X25709523Y-136431545D02*
X25709523Y-136526783D01*
X25709523Y-136526783D02*
X25661904Y-136669640D01*
X25661904Y-136669640D02*
X25090476Y-137241069D01*
X25090476Y-137241069D02*
X25709523Y-137241069D01*
X26042857Y-136241069D02*
X26661904Y-136241069D01*
X26661904Y-136241069D02*
X26328571Y-136622021D01*
X26328571Y-136622021D02*
X26471428Y-136622021D01*
X26471428Y-136622021D02*
X26566666Y-136669640D01*
X26566666Y-136669640D02*
X26614285Y-136717259D01*
X26614285Y-136717259D02*
X26661904Y-136812497D01*
X26661904Y-136812497D02*
X26661904Y-137050592D01*
X26661904Y-137050592D02*
X26614285Y-137145830D01*
X26614285Y-137145830D02*
X26566666Y-137193450D01*
X26566666Y-137193450D02*
X26471428Y-137241069D01*
X26471428Y-137241069D02*
X26185714Y-137241069D01*
X26185714Y-137241069D02*
X26090476Y-137193450D01*
X26090476Y-137193450D02*
X26042857Y-137145830D01*
X21328095Y-137561069D02*
X21328095Y-136561069D01*
X21899523Y-137561069D02*
X21470952Y-136989640D01*
X21899523Y-136561069D02*
X21328095Y-137132497D01*
X175526660Y-133454104D02*
X176002850Y-133454104D01*
X175431422Y-133739819D02*
X175764755Y-132739819D01*
X175764755Y-132739819D02*
X176098088Y-133739819D01*
X176955231Y-133739819D02*
X176383803Y-133739819D01*
X176669517Y-133739819D02*
X176669517Y-132739819D01*
X176669517Y-132739819D02*
X176574279Y-132882676D01*
X176574279Y-132882676D02*
X176479041Y-132977914D01*
X176479041Y-132977914D02*
X176383803Y-133025533D01*
X100385714Y-118191069D02*
X100385714Y-117191069D01*
X100385714Y-117191069D02*
X100623809Y-117191069D01*
X100623809Y-117191069D02*
X100766666Y-117238688D01*
X100766666Y-117238688D02*
X100861904Y-117333926D01*
X100861904Y-117333926D02*
X100909523Y-117429164D01*
X100909523Y-117429164D02*
X100957142Y-117619640D01*
X100957142Y-117619640D02*
X100957142Y-117762497D01*
X100957142Y-117762497D02*
X100909523Y-117952973D01*
X100909523Y-117952973D02*
X100861904Y-118048211D01*
X100861904Y-118048211D02*
X100766666Y-118143450D01*
X100766666Y-118143450D02*
X100623809Y-118191069D01*
X100623809Y-118191069D02*
X100385714Y-118191069D01*
X101909523Y-118191069D02*
X101338095Y-118191069D01*
X101623809Y-118191069D02*
X101623809Y-117191069D01*
X101623809Y-117191069D02*
X101528571Y-117333926D01*
X101528571Y-117333926D02*
X101433333Y-117429164D01*
X101433333Y-117429164D02*
X101338095Y-117476783D01*
X102242857Y-117191069D02*
X102909523Y-117191069D01*
X102909523Y-117191069D02*
X102480952Y-118191069D01*
X97528095Y-118511069D02*
X97528095Y-117511069D01*
X98099523Y-118511069D02*
X97670952Y-117939640D01*
X98099523Y-117511069D02*
X97528095Y-118082497D01*
X62285714Y-175341069D02*
X62285714Y-174341069D01*
X62285714Y-174341069D02*
X62523809Y-174341069D01*
X62523809Y-174341069D02*
X62666666Y-174388688D01*
X62666666Y-174388688D02*
X62761904Y-174483926D01*
X62761904Y-174483926D02*
X62809523Y-174579164D01*
X62809523Y-174579164D02*
X62857142Y-174769640D01*
X62857142Y-174769640D02*
X62857142Y-174912497D01*
X62857142Y-174912497D02*
X62809523Y-175102973D01*
X62809523Y-175102973D02*
X62761904Y-175198211D01*
X62761904Y-175198211D02*
X62666666Y-175293450D01*
X62666666Y-175293450D02*
X62523809Y-175341069D01*
X62523809Y-175341069D02*
X62285714Y-175341069D01*
X63190476Y-174341069D02*
X63809523Y-174341069D01*
X63809523Y-174341069D02*
X63476190Y-174722021D01*
X63476190Y-174722021D02*
X63619047Y-174722021D01*
X63619047Y-174722021D02*
X63714285Y-174769640D01*
X63714285Y-174769640D02*
X63761904Y-174817259D01*
X63761904Y-174817259D02*
X63809523Y-174912497D01*
X63809523Y-174912497D02*
X63809523Y-175150592D01*
X63809523Y-175150592D02*
X63761904Y-175245830D01*
X63761904Y-175245830D02*
X63714285Y-175293450D01*
X63714285Y-175293450D02*
X63619047Y-175341069D01*
X63619047Y-175341069D02*
X63333333Y-175341069D01*
X63333333Y-175341069D02*
X63238095Y-175293450D01*
X63238095Y-175293450D02*
X63190476Y-175245830D01*
X64714285Y-174341069D02*
X64238095Y-174341069D01*
X64238095Y-174341069D02*
X64190476Y-174817259D01*
X64190476Y-174817259D02*
X64238095Y-174769640D01*
X64238095Y-174769640D02*
X64333333Y-174722021D01*
X64333333Y-174722021D02*
X64571428Y-174722021D01*
X64571428Y-174722021D02*
X64666666Y-174769640D01*
X64666666Y-174769640D02*
X64714285Y-174817259D01*
X64714285Y-174817259D02*
X64761904Y-174912497D01*
X64761904Y-174912497D02*
X64761904Y-175150592D01*
X64761904Y-175150592D02*
X64714285Y-175245830D01*
X64714285Y-175245830D02*
X64666666Y-175293450D01*
X64666666Y-175293450D02*
X64571428Y-175341069D01*
X64571428Y-175341069D02*
X64333333Y-175341069D01*
X64333333Y-175341069D02*
X64238095Y-175293450D01*
X64238095Y-175293450D02*
X64190476Y-175245830D01*
X59428095Y-175661069D02*
X59428095Y-174661069D01*
X59999523Y-175661069D02*
X59570952Y-175089640D01*
X59999523Y-174661069D02*
X59428095Y-175232497D01*
X119911905Y-99141069D02*
X119911905Y-98141069D01*
X119911905Y-98141069D02*
X120150000Y-98141069D01*
X120150000Y-98141069D02*
X120292857Y-98188688D01*
X120292857Y-98188688D02*
X120388095Y-98283926D01*
X120388095Y-98283926D02*
X120435714Y-98379164D01*
X120435714Y-98379164D02*
X120483333Y-98569640D01*
X120483333Y-98569640D02*
X120483333Y-98712497D01*
X120483333Y-98712497D02*
X120435714Y-98902973D01*
X120435714Y-98902973D02*
X120388095Y-98998211D01*
X120388095Y-98998211D02*
X120292857Y-99093450D01*
X120292857Y-99093450D02*
X120150000Y-99141069D01*
X120150000Y-99141069D02*
X119911905Y-99141069D01*
X121340476Y-98141069D02*
X121150000Y-98141069D01*
X121150000Y-98141069D02*
X121054762Y-98188688D01*
X121054762Y-98188688D02*
X121007143Y-98236307D01*
X121007143Y-98236307D02*
X120911905Y-98379164D01*
X120911905Y-98379164D02*
X120864286Y-98569640D01*
X120864286Y-98569640D02*
X120864286Y-98950592D01*
X120864286Y-98950592D02*
X120911905Y-99045830D01*
X120911905Y-99045830D02*
X120959524Y-99093450D01*
X120959524Y-99093450D02*
X121054762Y-99141069D01*
X121054762Y-99141069D02*
X121245238Y-99141069D01*
X121245238Y-99141069D02*
X121340476Y-99093450D01*
X121340476Y-99093450D02*
X121388095Y-99045830D01*
X121388095Y-99045830D02*
X121435714Y-98950592D01*
X121435714Y-98950592D02*
X121435714Y-98712497D01*
X121435714Y-98712497D02*
X121388095Y-98617259D01*
X121388095Y-98617259D02*
X121340476Y-98569640D01*
X121340476Y-98569640D02*
X121245238Y-98522021D01*
X121245238Y-98522021D02*
X121054762Y-98522021D01*
X121054762Y-98522021D02*
X120959524Y-98569640D01*
X120959524Y-98569640D02*
X120911905Y-98617259D01*
X120911905Y-98617259D02*
X120864286Y-98712497D01*
X116578095Y-99461069D02*
X116578095Y-98461069D01*
X117149523Y-99461069D02*
X116720952Y-98889640D01*
X117149523Y-98461069D02*
X116578095Y-99032497D01*
%TO.C,D10*%
D12*
X118038750Y-177006250D02*
X118688750Y-177006250D01*
X119288750Y-175886250D02*
X119288750Y-178126250D01*
X119408750Y-175886250D02*
X119408750Y-178126250D01*
X119528750Y-175886250D02*
X119528750Y-178126250D01*
X123578750Y-177006250D02*
X122928750Y-177006250D01*
X118688750Y-175886250D02*
X122928750Y-175886250D01*
X122928750Y-178126250D01*
X118688750Y-178126250D01*
X118688750Y-175886250D01*
%TO.C,D26*%
X41680000Y-100806250D02*
X42330000Y-100806250D01*
X42930000Y-99686250D02*
X42930000Y-101926250D01*
X43050000Y-99686250D02*
X43050000Y-101926250D01*
X43170000Y-99686250D02*
X43170000Y-101926250D01*
X47220000Y-100806250D02*
X46570000Y-100806250D01*
X42330000Y-99686250D02*
X46570000Y-99686250D01*
X46570000Y-101926250D01*
X42330000Y-101926250D01*
X42330000Y-99686250D01*
%TO.C,D1*%
X136930000Y-100806250D02*
X137580000Y-100806250D01*
X138180000Y-99686250D02*
X138180000Y-101926250D01*
X138300000Y-99686250D02*
X138300000Y-101926250D01*
X138420000Y-99686250D02*
X138420000Y-101926250D01*
X142470000Y-100806250D02*
X141820000Y-100806250D01*
X137580000Y-99686250D02*
X141820000Y-99686250D01*
X141820000Y-101926250D01*
X137580000Y-101926250D01*
X137580000Y-99686250D01*
%TO.C,D28*%
X41680000Y-138906250D02*
X42330000Y-138906250D01*
X42930000Y-137786250D02*
X42930000Y-140026250D01*
X43050000Y-137786250D02*
X43050000Y-140026250D01*
X43170000Y-137786250D02*
X43170000Y-140026250D01*
X47220000Y-138906250D02*
X46570000Y-138906250D01*
X42330000Y-137786250D02*
X46570000Y-137786250D01*
X46570000Y-140026250D01*
X42330000Y-140026250D01*
X42330000Y-137786250D01*
%TO.C,D34*%
X60888750Y-157956250D02*
X61538750Y-157956250D01*
X62138750Y-156836250D02*
X62138750Y-159076250D01*
X62258750Y-156836250D02*
X62258750Y-159076250D01*
X62378750Y-156836250D02*
X62378750Y-159076250D01*
X66428750Y-157956250D02*
X65778750Y-157956250D01*
X61538750Y-156836250D02*
X65778750Y-156836250D01*
X65778750Y-159076250D01*
X61538750Y-159076250D01*
X61538750Y-156836250D01*
%TO.C,D5*%
X139311250Y-177006250D02*
X139961250Y-177006250D01*
X140561250Y-175886250D02*
X140561250Y-178126250D01*
X140681250Y-175886250D02*
X140681250Y-178126250D01*
X140801250Y-175886250D02*
X140801250Y-178126250D01*
X144851250Y-177006250D02*
X144201250Y-177006250D01*
X139961250Y-175886250D02*
X144201250Y-175886250D01*
X144201250Y-178126250D01*
X139961250Y-178126250D01*
X139961250Y-175886250D01*
%TO.C,D21*%
X22630000Y-100806250D02*
X23280000Y-100806250D01*
X23880000Y-99686250D02*
X23880000Y-101926250D01*
X24000000Y-99686250D02*
X24000000Y-101926250D01*
X24120000Y-99686250D02*
X24120000Y-101926250D01*
X28170000Y-100806250D02*
X27520000Y-100806250D01*
X23280000Y-99686250D02*
X27520000Y-99686250D01*
X27520000Y-101926250D01*
X23280000Y-101926250D01*
X23280000Y-99686250D01*
%TO.C,D20*%
X98988750Y-177006250D02*
X99638750Y-177006250D01*
X100238750Y-175886250D02*
X100238750Y-178126250D01*
X100358750Y-175886250D02*
X100358750Y-178126250D01*
X100478750Y-175886250D02*
X100478750Y-178126250D01*
X104528750Y-177006250D02*
X103878750Y-177006250D01*
X99638750Y-175886250D02*
X103878750Y-175886250D01*
X103878750Y-178126250D01*
X99638750Y-178126250D01*
X99638750Y-175886250D01*
%TO.C,D32*%
X60888750Y-119856250D02*
X61538750Y-119856250D01*
X62138750Y-118736250D02*
X62138750Y-120976250D01*
X62258750Y-118736250D02*
X62258750Y-120976250D01*
X62378750Y-118736250D02*
X62378750Y-120976250D01*
X66428750Y-119856250D02*
X65778750Y-119856250D01*
X61538750Y-118736250D02*
X65778750Y-118736250D01*
X65778750Y-120976250D01*
X61538750Y-120976250D01*
X61538750Y-118736250D01*
%TO.C,D8*%
X118038750Y-138906250D02*
X118688750Y-138906250D01*
X119288750Y-137786250D02*
X119288750Y-140026250D01*
X119408750Y-137786250D02*
X119408750Y-140026250D01*
X119528750Y-137786250D02*
X119528750Y-140026250D01*
X123578750Y-138906250D02*
X122928750Y-138906250D01*
X118688750Y-137786250D02*
X122928750Y-137786250D01*
X122928750Y-140026250D01*
X118688750Y-140026250D01*
X118688750Y-137786250D01*
%TO.C,D30*%
X41680000Y-177006250D02*
X42330000Y-177006250D01*
X42930000Y-175886250D02*
X42930000Y-178126250D01*
X43050000Y-175886250D02*
X43050000Y-178126250D01*
X43170000Y-175886250D02*
X43170000Y-178126250D01*
X47220000Y-177006250D02*
X46570000Y-177006250D01*
X42330000Y-175886250D02*
X46570000Y-175886250D01*
X46570000Y-178126250D01*
X42330000Y-178126250D01*
X42330000Y-175886250D01*
%TO.C,D7*%
X117721250Y-119856250D02*
X118371250Y-119856250D01*
X118971250Y-118736250D02*
X118971250Y-120976250D01*
X119091250Y-118736250D02*
X119091250Y-120976250D01*
X119211250Y-118736250D02*
X119211250Y-120976250D01*
X123261250Y-119856250D02*
X122611250Y-119856250D01*
X118371250Y-118736250D02*
X122611250Y-118736250D01*
X122611250Y-120976250D01*
X118371250Y-120976250D01*
X118371250Y-118736250D01*
%TO.C,D24*%
X22630000Y-157956250D02*
X23280000Y-157956250D01*
X23880000Y-156836250D02*
X23880000Y-159076250D01*
X24000000Y-156836250D02*
X24000000Y-159076250D01*
X24120000Y-156836250D02*
X24120000Y-159076250D01*
X28170000Y-157956250D02*
X27520000Y-157956250D01*
X23280000Y-156836250D02*
X27520000Y-156836250D01*
X27520000Y-159076250D01*
X23280000Y-159076250D01*
X23280000Y-156836250D01*
%TO.C,D3*%
X138517500Y-138906250D02*
X139167500Y-138906250D01*
X139767500Y-137786250D02*
X139767500Y-140026250D01*
X139887500Y-137786250D02*
X139887500Y-140026250D01*
X140007500Y-137786250D02*
X140007500Y-140026250D01*
X144057500Y-138906250D02*
X143407500Y-138906250D01*
X139167500Y-137786250D02*
X143407500Y-137786250D01*
X143407500Y-140026250D01*
X139167500Y-140026250D01*
X139167500Y-137786250D01*
%TO.C,D4*%
X139311250Y-157956250D02*
X139961250Y-157956250D01*
X140561250Y-156836250D02*
X140561250Y-159076250D01*
X140681250Y-156836250D02*
X140681250Y-159076250D01*
X140801250Y-156836250D02*
X140801250Y-159076250D01*
X144851250Y-157956250D02*
X144201250Y-157956250D01*
X139961250Y-156836250D02*
X144201250Y-156836250D01*
X144201250Y-159076250D01*
X139961250Y-159076250D01*
X139961250Y-156836250D01*
%TO.C,D14*%
X79780000Y-157956250D02*
X80430000Y-157956250D01*
X81030000Y-156836250D02*
X81030000Y-159076250D01*
X81150000Y-156836250D02*
X81150000Y-159076250D01*
X81270000Y-156836250D02*
X81270000Y-159076250D01*
X85320000Y-157956250D02*
X84670000Y-157956250D01*
X80430000Y-156836250D02*
X84670000Y-156836250D01*
X84670000Y-159076250D01*
X80430000Y-159076250D01*
X80430000Y-156836250D01*
%TO.C,D33*%
X60888750Y-138906250D02*
X61538750Y-138906250D01*
X62138750Y-137786250D02*
X62138750Y-140026250D01*
X62258750Y-137786250D02*
X62258750Y-140026250D01*
X62378750Y-137786250D02*
X62378750Y-140026250D01*
X66428750Y-138906250D02*
X65778750Y-138906250D01*
X61538750Y-137786250D02*
X65778750Y-137786250D01*
X65778750Y-140026250D01*
X61538750Y-140026250D01*
X61538750Y-137786250D01*
%TO.C,D13*%
X79780000Y-138906250D02*
X80430000Y-138906250D01*
X81030000Y-137786250D02*
X81030000Y-140026250D01*
X81150000Y-137786250D02*
X81150000Y-140026250D01*
X81270000Y-137786250D02*
X81270000Y-140026250D01*
X85320000Y-138906250D02*
X84670000Y-138906250D01*
X80430000Y-137786250D02*
X84670000Y-137786250D01*
X84670000Y-140026250D01*
X80430000Y-140026250D01*
X80430000Y-137786250D01*
%TO.C,D31*%
X60730000Y-100806250D02*
X61380000Y-100806250D01*
X61980000Y-99686250D02*
X61980000Y-101926250D01*
X62100000Y-99686250D02*
X62100000Y-101926250D01*
X62220000Y-99686250D02*
X62220000Y-101926250D01*
X66270000Y-100806250D02*
X65620000Y-100806250D01*
X61380000Y-99686250D02*
X65620000Y-99686250D01*
X65620000Y-101926250D01*
X61380000Y-101926250D01*
X61380000Y-99686250D01*
%TO.C,D19*%
X98830000Y-157956250D02*
X99480000Y-157956250D01*
X100080000Y-156836250D02*
X100080000Y-159076250D01*
X100200000Y-156836250D02*
X100200000Y-159076250D01*
X100320000Y-156836250D02*
X100320000Y-159076250D01*
X104370000Y-157956250D02*
X103720000Y-157956250D01*
X99480000Y-156836250D02*
X103720000Y-156836250D01*
X103720000Y-159076250D01*
X99480000Y-159076250D01*
X99480000Y-156836250D01*
%TO.C,D29*%
X41680000Y-157956250D02*
X42330000Y-157956250D01*
X42930000Y-156836250D02*
X42930000Y-159076250D01*
X43050000Y-156836250D02*
X43050000Y-159076250D01*
X43170000Y-156836250D02*
X43170000Y-159076250D01*
X47220000Y-157956250D02*
X46570000Y-157956250D01*
X42330000Y-156836250D02*
X46570000Y-156836250D01*
X46570000Y-159076250D01*
X42330000Y-159076250D01*
X42330000Y-156836250D01*
%TO.C,D9*%
X117880000Y-157956250D02*
X118530000Y-157956250D01*
X119130000Y-156836250D02*
X119130000Y-159076250D01*
X119250000Y-156836250D02*
X119250000Y-159076250D01*
X119370000Y-156836250D02*
X119370000Y-159076250D01*
X123420000Y-157956250D02*
X122770000Y-157956250D01*
X118530000Y-156836250D02*
X122770000Y-156836250D01*
X122770000Y-159076250D01*
X118530000Y-159076250D01*
X118530000Y-156836250D01*
%TO.C,D16*%
X98988750Y-100806250D02*
X99638750Y-100806250D01*
X100238750Y-99686250D02*
X100238750Y-101926250D01*
X100358750Y-99686250D02*
X100358750Y-101926250D01*
X100478750Y-99686250D02*
X100478750Y-101926250D01*
X104528750Y-100806250D02*
X103878750Y-100806250D01*
X99638750Y-99686250D02*
X103878750Y-99686250D01*
X103878750Y-101926250D01*
X99638750Y-101926250D01*
X99638750Y-99686250D01*
%TO.C,D2*%
X139311250Y-119856250D02*
X139961250Y-119856250D01*
X140561250Y-118736250D02*
X140561250Y-120976250D01*
X140681250Y-118736250D02*
X140681250Y-120976250D01*
X140801250Y-118736250D02*
X140801250Y-120976250D01*
X144851250Y-119856250D02*
X144201250Y-119856250D01*
X139961250Y-118736250D02*
X144201250Y-118736250D01*
X144201250Y-120976250D01*
X139961250Y-120976250D01*
X139961250Y-118736250D01*
%TO.C,D18*%
X98830000Y-138906250D02*
X99480000Y-138906250D01*
X100080000Y-137786250D02*
X100080000Y-140026250D01*
X100200000Y-137786250D02*
X100200000Y-140026250D01*
X100320000Y-137786250D02*
X100320000Y-140026250D01*
X104370000Y-138906250D02*
X103720000Y-138906250D01*
X99480000Y-137786250D02*
X103720000Y-137786250D01*
X103720000Y-140026250D01*
X99480000Y-140026250D01*
X99480000Y-137786250D01*
%TO.C,D15*%
X79780000Y-177006250D02*
X80430000Y-177006250D01*
X81030000Y-175886250D02*
X81030000Y-178126250D01*
X81150000Y-175886250D02*
X81150000Y-178126250D01*
X81270000Y-175886250D02*
X81270000Y-178126250D01*
X85320000Y-177006250D02*
X84670000Y-177006250D01*
X80430000Y-175886250D02*
X84670000Y-175886250D01*
X84670000Y-178126250D01*
X80430000Y-178126250D01*
X80430000Y-175886250D01*
%TO.C,D27*%
X41680000Y-119856250D02*
X42330000Y-119856250D01*
X42930000Y-118736250D02*
X42930000Y-120976250D01*
X43050000Y-118736250D02*
X43050000Y-120976250D01*
X43170000Y-118736250D02*
X43170000Y-120976250D01*
X47220000Y-119856250D02*
X46570000Y-119856250D01*
X42330000Y-118736250D02*
X46570000Y-118736250D01*
X46570000Y-120976250D01*
X42330000Y-120976250D01*
X42330000Y-118736250D01*
%TO.C,D12*%
X79780000Y-119856250D02*
X80430000Y-119856250D01*
X81030000Y-118736250D02*
X81030000Y-120976250D01*
X81150000Y-118736250D02*
X81150000Y-120976250D01*
X81270000Y-118736250D02*
X81270000Y-120976250D01*
X85320000Y-119856250D02*
X84670000Y-119856250D01*
X80430000Y-118736250D02*
X84670000Y-118736250D01*
X84670000Y-120976250D01*
X80430000Y-120976250D01*
X80430000Y-118736250D01*
%TO.C,D25*%
X22630000Y-177006250D02*
X23280000Y-177006250D01*
X23880000Y-175886250D02*
X23880000Y-178126250D01*
X24000000Y-175886250D02*
X24000000Y-178126250D01*
X24120000Y-175886250D02*
X24120000Y-178126250D01*
X28170000Y-177006250D02*
X27520000Y-177006250D01*
X23280000Y-175886250D02*
X27520000Y-175886250D01*
X27520000Y-178126250D01*
X23280000Y-178126250D01*
X23280000Y-175886250D01*
%TO.C,D22*%
X22630000Y-119856250D02*
X23280000Y-119856250D01*
X23880000Y-118736250D02*
X23880000Y-120976250D01*
X24000000Y-118736250D02*
X24000000Y-120976250D01*
X24120000Y-118736250D02*
X24120000Y-120976250D01*
X28170000Y-119856250D02*
X27520000Y-119856250D01*
X23280000Y-118736250D02*
X27520000Y-118736250D01*
X27520000Y-120976250D01*
X23280000Y-120976250D01*
X23280000Y-118736250D01*
%TO.C,D11*%
X79938750Y-100806250D02*
X80588750Y-100806250D01*
X81188750Y-99686250D02*
X81188750Y-101926250D01*
X81308750Y-99686250D02*
X81308750Y-101926250D01*
X81428750Y-99686250D02*
X81428750Y-101926250D01*
X85478750Y-100806250D02*
X84828750Y-100806250D01*
X80588750Y-99686250D02*
X84828750Y-99686250D01*
X84828750Y-101926250D01*
X80588750Y-101926250D01*
X80588750Y-99686250D01*
%TO.C,D23*%
X22630000Y-138906250D02*
X23280000Y-138906250D01*
X23880000Y-137786250D02*
X23880000Y-140026250D01*
X24000000Y-137786250D02*
X24000000Y-140026250D01*
X24120000Y-137786250D02*
X24120000Y-140026250D01*
X28170000Y-138906250D02*
X27520000Y-138906250D01*
X23280000Y-137786250D02*
X27520000Y-137786250D01*
X27520000Y-140026250D01*
X23280000Y-140026250D01*
X23280000Y-137786250D01*
%TO.C,A1*%
X152880000Y-85450000D02*
X152400000Y-85450000D01*
X152880000Y-85450000D02*
X152880000Y-85870000D01*
X152880000Y-87990000D02*
X152880000Y-88410000D01*
X152880000Y-90530000D02*
X152880000Y-90950000D01*
X152880000Y-93070000D02*
X152880000Y-93490000D01*
X152880000Y-95610000D02*
X152880000Y-96030000D01*
X152880000Y-98150000D02*
X152880000Y-98570000D01*
X152880000Y-100690000D02*
X152880000Y-101110000D01*
X152880000Y-103230000D02*
X152880000Y-103650000D01*
X152880000Y-105770000D02*
X152880000Y-106190000D01*
X152880000Y-108310000D02*
X152880000Y-108730000D01*
X152880000Y-110850000D02*
X152880000Y-111270000D01*
X152880000Y-113390000D02*
X152880000Y-113810000D01*
X152880000Y-115930000D02*
X152880000Y-116350000D01*
X152880000Y-118470000D02*
X152880000Y-118890000D01*
X152880000Y-121010000D02*
X152880000Y-121430000D01*
X152880000Y-123550000D02*
X152880000Y-123970000D01*
X152880000Y-126090000D02*
X152880000Y-126510000D01*
X152880000Y-128630000D02*
X152880000Y-129050000D01*
X152880000Y-131170000D02*
X152880000Y-131590000D01*
X152910324Y-83330000D02*
X152400000Y-83330000D01*
X153220000Y-83330063D02*
X153220000Y-82973000D01*
X153220000Y-85450000D02*
X153220000Y-85870000D01*
X153220000Y-87990000D02*
X153220000Y-88410000D01*
X153220000Y-90530000D02*
X153220000Y-90950000D01*
X153220000Y-93070000D02*
X153220000Y-93490000D01*
X153220000Y-95610000D02*
X153220000Y-96030000D01*
X153220000Y-98150000D02*
X153220000Y-98570000D01*
X153220000Y-100690000D02*
X153220000Y-101110000D01*
X153220000Y-103230000D02*
X153220000Y-103650000D01*
X153220000Y-105770000D02*
X153220000Y-106190000D01*
X153220000Y-108310000D02*
X153220000Y-108730000D01*
X153220000Y-110850000D02*
X153220000Y-111270000D01*
X153220000Y-113390000D02*
X153220000Y-113810000D01*
X153220000Y-115930000D02*
X153220000Y-116350000D01*
X153220000Y-118470000D02*
X153220000Y-118890000D01*
X153220000Y-121010000D02*
X153220000Y-121430000D01*
X153220000Y-123550000D02*
X153220000Y-123970000D01*
X153220000Y-126090000D02*
X153220000Y-126510000D01*
X153220000Y-128630000D02*
X153220000Y-129050000D01*
X153220000Y-131170000D02*
X153220000Y-131590000D01*
X153220000Y-133709937D02*
X153220000Y-134067000D01*
X153490000Y-82910000D02*
X155980000Y-82910000D01*
X153490000Y-134130000D02*
X157327939Y-134130000D01*
X155980000Y-82910000D02*
X155980000Y-83823520D01*
X155980000Y-82910000D02*
X157327940Y-82910000D01*
X155980000Y-86216480D02*
X155980000Y-130823520D01*
X155980000Y-133216480D02*
X155980000Y-134130000D01*
X158252061Y-82910000D02*
X159255000Y-82910000D01*
X159255000Y-82910000D02*
X167725000Y-82910000D01*
X159590000Y-82910000D02*
X159590000Y-83826000D01*
X159590000Y-86214000D02*
X159590000Y-87430000D01*
X159590000Y-87430000D02*
X159886090Y-87430000D01*
X159890000Y-134130000D02*
X158252061Y-134130000D01*
X162243910Y-87430000D02*
X164736090Y-87430000D01*
X167090000Y-134130000D02*
X159890000Y-134130000D01*
X167093910Y-87430000D02*
X167390000Y-87430000D01*
X167390000Y-82910000D02*
X167390000Y-83826000D01*
X167390000Y-86214000D02*
X167390000Y-87430000D01*
X167725000Y-82910000D02*
X168727939Y-82910000D01*
X168727939Y-134130000D02*
X167090000Y-134130000D01*
X169652061Y-82910000D02*
X171000000Y-82910000D01*
X169652061Y-134130000D02*
X173490000Y-134130000D01*
X171000000Y-82910000D02*
X171000000Y-83823520D01*
X171000000Y-86216480D02*
X171000000Y-130823520D01*
X171000000Y-133216480D02*
X171000000Y-134130000D01*
X173490000Y-82910000D02*
X171000000Y-82910000D01*
X173760000Y-83330063D02*
X173760000Y-82973000D01*
X173760000Y-85450000D02*
X173760000Y-85870000D01*
X173760000Y-87990000D02*
X173760000Y-88410000D01*
X173760000Y-90530000D02*
X173760000Y-90950000D01*
X173760000Y-93070000D02*
X173760000Y-93490000D01*
X173760000Y-95610000D02*
X173760000Y-96030000D01*
X173760000Y-98150000D02*
X173760000Y-98570000D01*
X173760000Y-100690000D02*
X173760000Y-101110000D01*
X173760000Y-103230000D02*
X173760000Y-103650000D01*
X173760000Y-105770000D02*
X173760000Y-106190000D01*
X173760000Y-108310000D02*
X173760000Y-108730000D01*
X173760000Y-110850000D02*
X173760000Y-111270000D01*
X173760000Y-113390000D02*
X173760000Y-113810000D01*
X173760000Y-115930000D02*
X173760000Y-116350000D01*
X173760000Y-118470000D02*
X173760000Y-118890000D01*
X173760000Y-121010000D02*
X173760000Y-121430000D01*
X173760000Y-123550000D02*
X173760000Y-123970000D01*
X173760000Y-126090000D02*
X173760000Y-126510000D01*
X173760000Y-128630000D02*
X173760000Y-129050000D01*
X173760000Y-131170000D02*
X173760000Y-131590000D01*
X173760000Y-133709937D02*
X173760000Y-134067000D01*
X174100000Y-85450000D02*
X174100000Y-85870000D01*
X174100000Y-87990000D02*
X174100000Y-88410000D01*
X174100000Y-90530000D02*
X174100000Y-90950000D01*
X174100000Y-93070000D02*
X174100000Y-93490000D01*
X174100000Y-95610000D02*
X174100000Y-96030000D01*
X174100000Y-98150000D02*
X174100000Y-98570000D01*
X174100000Y-100690000D02*
X174100000Y-101110000D01*
X174100000Y-103230000D02*
X174100000Y-103650000D01*
X174100000Y-105770000D02*
X174100000Y-106190000D01*
X174100000Y-108310000D02*
X174100000Y-108730000D01*
X174100000Y-110850000D02*
X174100000Y-111270000D01*
X174100000Y-113390000D02*
X174100000Y-113810000D01*
X174100000Y-115930000D02*
X174100000Y-116350000D01*
X174100000Y-118470000D02*
X174100000Y-118890000D01*
X174100000Y-121010000D02*
X174100000Y-121430000D01*
X174100000Y-123550000D02*
X174100000Y-123970000D01*
X174100000Y-126090000D02*
X174100000Y-126510000D01*
X174100000Y-128630000D02*
X174100000Y-129050000D01*
X174100000Y-131170000D02*
X174100000Y-131590000D01*
X152910324Y-83330000D02*
G75*
G02*
X153490000Y-82910000I579692J-190051D01*
G01*
X153490000Y-134130000D02*
G75*
G02*
X152910324Y-133709937I1J610002D01*
G01*
X173490000Y-82910000D02*
G75*
G02*
X174069676Y-83330063I0J-610000D01*
G01*
X174069676Y-133709937D02*
G75*
G02*
X173490000Y-134130069I-579676J189837D01*
G01*
%TO.C,D17*%
X98830000Y-119856250D02*
X99480000Y-119856250D01*
X100080000Y-118736250D02*
X100080000Y-120976250D01*
X100200000Y-118736250D02*
X100200000Y-120976250D01*
X100320000Y-118736250D02*
X100320000Y-120976250D01*
X104370000Y-119856250D02*
X103720000Y-119856250D01*
X99480000Y-118736250D02*
X103720000Y-118736250D01*
X103720000Y-120976250D01*
X99480000Y-120976250D01*
X99480000Y-118736250D01*
%TO.C,D35*%
X60730000Y-177006250D02*
X61380000Y-177006250D01*
X61980000Y-175886250D02*
X61980000Y-178126250D01*
X62100000Y-175886250D02*
X62100000Y-178126250D01*
X62220000Y-175886250D02*
X62220000Y-178126250D01*
X66270000Y-177006250D02*
X65620000Y-177006250D01*
X61380000Y-175886250D02*
X65620000Y-175886250D01*
X65620000Y-178126250D01*
X61380000Y-178126250D01*
X61380000Y-175886250D01*
%TO.C,D6*%
X117880000Y-100806250D02*
X118530000Y-100806250D01*
X119130000Y-99686250D02*
X119130000Y-101926250D01*
X119250000Y-99686250D02*
X119250000Y-101926250D01*
X119370000Y-99686250D02*
X119370000Y-101926250D01*
X123420000Y-100806250D02*
X122770000Y-100806250D01*
X118530000Y-99686250D02*
X122770000Y-99686250D01*
X122770000Y-101926250D01*
X118530000Y-101926250D01*
X118530000Y-99686250D01*
%TD*%
M02*
