%TF.GenerationSoftware,KiCad,Pcbnew,10.0.5*%
%TF.CreationDate,2026-09-15T13:48:29+02:00*%
%TF.ProjectId,splitkeyboard,73706c69-746b-4657-9962-6f6172642e6b,rev?*%
%TF.SameCoordinates,Original*%
%TF.FileFunction,Soldermask,Bot*%
%TF.FilePolarity,Negative*%
%FSLAX46Y46*%
G04 Gerber Fmt 4.6, Leading zero omitted, Abs format (unit mm)*
G04 Created by KiCad (PCBNEW 10.0.5) date 2026-09-15 13:48:29*
%MOMM*%
%LPD*%
G01*
G04 APERTURE LIST*
G04 Aperture macros list*
%AMRoundRect*
0 Rectangle with rounded corners*
0 $1 Rounding radius*
0 $2 $3 $4 $5 $6 $7 $8 $9 X,Y pos of 4 corners*
0 Add a 4 corners polygon primitive as box body*
4,1,4,$2,$3,$4,$5,$6,$7,$8,$9,$2,$3,0*
0 Add four circle primitives for the rounded corners*
1,1,$1+$1,$2,$3*
1,1,$1+$1,$4,$5*
1,1,$1+$1,$6,$7*
1,1,$1+$1,$8,$9*
0 Add four rect primitives between the rounded corners*
20,1,$1+$1,$2,$3,$4,$5,0*
20,1,$1+$1,$4,$5,$6,$7,0*
20,1,$1+$1,$6,$7,$8,$9,0*
20,1,$1+$1,$8,$9,$2,$3,0*%
%AMFreePoly0*
4,1,37,0.603843,0.796157,0.639018,0.796157,0.711114,0.766294,0.766294,0.711114,0.796157,0.639018,0.796157,0.603843,0.800000,0.600000,0.800000,-0.600000,0.796157,-0.603843,0.796157,-0.639018,0.766294,-0.711114,0.711114,-0.766294,0.639018,-0.796157,0.603843,-0.796157,0.600000,-0.800000,0.000000,-0.800000,0.000000,-0.796148,-0.078414,-0.796148,-0.232228,-0.765552,-0.377117,-0.705537,
-0.507515,-0.618408,-0.618408,-0.507515,-0.705537,-0.377117,-0.765552,-0.232228,-0.796148,-0.078414,-0.796148,0.078414,-0.765552,0.232228,-0.705537,0.377117,-0.618408,0.507515,-0.507515,0.618408,-0.377117,0.705537,-0.232228,0.765552,-0.078414,0.796148,0.000000,0.796148,0.000000,0.800000,0.600000,0.800000,0.603843,0.796157,0.603843,0.796157,$1*%
%AMFreePoly1*
4,1,37,0.000000,0.796148,0.078414,0.796148,0.232228,0.765552,0.377117,0.705537,0.507515,0.618408,0.618408,0.507515,0.705537,0.377117,0.765552,0.232228,0.796148,0.078414,0.796148,-0.078414,0.765552,-0.232228,0.705537,-0.377117,0.618408,-0.507515,0.507515,-0.618408,0.377117,-0.705537,0.232228,-0.765552,0.078414,-0.796148,0.000000,-0.796148,0.000000,-0.800000,-0.600000,-0.800000,
-0.603843,-0.796157,-0.639018,-0.796157,-0.711114,-0.766294,-0.766294,-0.711114,-0.796157,-0.639018,-0.796157,-0.603843,-0.800000,-0.600000,-0.800000,0.600000,-0.796157,0.603843,-0.796157,0.639018,-0.766294,0.711114,-0.711114,0.766294,-0.639018,0.796157,-0.603843,0.796157,-0.600000,0.800000,0.000000,0.800000,0.000000,0.796148,0.000000,0.796148,$1*%
G04 Aperture macros list end*
%ADD10RoundRect,0.250000X-0.550000X-0.550000X0.550000X-0.550000X0.550000X0.550000X-0.550000X0.550000X0*%
%ADD11C,1.600000*%
%ADD12C,1.701800*%
%ADD13C,3.048000*%
%ADD14C,3.987800*%
%ADD15C,2.200000*%
%ADD16C,1.850000*%
%ADD17RoundRect,0.200000X-0.600000X-0.600000X0.600000X-0.600000X0.600000X0.600000X-0.600000X0.600000X0*%
%ADD18FreePoly0,0.000000*%
%ADD19FreePoly1,0.000000*%
G04 APERTURE END LIST*
D10*
%TO.C,D10*%
X116998750Y-177006250D03*
D11*
X124618750Y-177006250D03*
%TD*%
D12*
%TO.C,SW12*%
X79057500Y-111125000D03*
D13*
X81597500Y-106045000D03*
D14*
X84137500Y-111125000D03*
D13*
X87947500Y-108585000D03*
D12*
X89217500Y-111125000D03*
%TD*%
%TO.C,SW30*%
X40957500Y-168275000D03*
D13*
X43497500Y-163195000D03*
D14*
X46037500Y-168275000D03*
D13*
X49847500Y-165735000D03*
D12*
X51117500Y-168275000D03*
%TD*%
%TO.C,SW26*%
X40957500Y-92075000D03*
D13*
X43497500Y-86995000D03*
D14*
X46037500Y-92075000D03*
D13*
X49847500Y-89535000D03*
D12*
X51117500Y-92075000D03*
%TD*%
D10*
%TO.C,D26*%
X40640000Y-100806250D03*
D11*
X48260000Y-100806250D03*
%TD*%
D10*
%TO.C,D1*%
X135890000Y-100806250D03*
D11*
X143510000Y-100806250D03*
%TD*%
D10*
%TO.C,D28*%
X40640000Y-138906250D03*
D11*
X48260000Y-138906250D03*
%TD*%
D10*
%TO.C,D34*%
X59848750Y-157956250D03*
D11*
X67468750Y-157956250D03*
%TD*%
D12*
%TO.C,SW31*%
X60007500Y-92075000D03*
D13*
X62547500Y-86995000D03*
D14*
X65087500Y-92075000D03*
D13*
X68897500Y-89535000D03*
D12*
X70167500Y-92075000D03*
%TD*%
%TO.C,SW25*%
X21907500Y-168275000D03*
D13*
X24447500Y-163195000D03*
D14*
X26987500Y-168275000D03*
D13*
X30797500Y-165735000D03*
D12*
X32067500Y-168275000D03*
%TD*%
%TO.C,SW3*%
X136207500Y-130175000D03*
D13*
X138747500Y-125095000D03*
D14*
X141287500Y-130175000D03*
D13*
X145097500Y-127635000D03*
D12*
X146367500Y-130175000D03*
%TD*%
%TO.C,SW14*%
X79057500Y-149225000D03*
D13*
X81597500Y-144145000D03*
D14*
X84137500Y-149225000D03*
D13*
X87947500Y-146685000D03*
D12*
X89217500Y-149225000D03*
%TD*%
%TO.C,SW4*%
X136207500Y-149225000D03*
D13*
X138747500Y-144145000D03*
D14*
X141287500Y-149225000D03*
D13*
X145097500Y-146685000D03*
D12*
X146367500Y-149225000D03*
%TD*%
%TO.C,SW22*%
X21907500Y-111125000D03*
D13*
X24447500Y-106045000D03*
D14*
X26987500Y-111125000D03*
D13*
X30797500Y-108585000D03*
D12*
X32067500Y-111125000D03*
%TD*%
D10*
%TO.C,D5*%
X138271250Y-177006250D03*
D11*
X145891250Y-177006250D03*
%TD*%
D10*
%TO.C,D21*%
X21590000Y-100806250D03*
D11*
X29210000Y-100806250D03*
%TD*%
D12*
%TO.C,SW17*%
X98107500Y-111125000D03*
D13*
X100647500Y-106045000D03*
D14*
X103187500Y-111125000D03*
D13*
X106997500Y-108585000D03*
D12*
X108267500Y-111125000D03*
%TD*%
D10*
%TO.C,D20*%
X97948750Y-177006250D03*
D11*
X105568750Y-177006250D03*
%TD*%
D12*
%TO.C,SW29*%
X40957500Y-149225000D03*
D13*
X43497500Y-144145000D03*
D14*
X46037500Y-149225000D03*
D13*
X49847500Y-146685000D03*
D12*
X51117500Y-149225000D03*
%TD*%
%TO.C,SW2*%
X136207500Y-111125000D03*
D13*
X138747500Y-106045000D03*
D14*
X141287500Y-111125000D03*
D13*
X145097500Y-108585000D03*
D12*
X146367500Y-111125000D03*
%TD*%
%TO.C,SW9*%
X117157500Y-149225000D03*
D13*
X119697500Y-144145000D03*
D14*
X122237500Y-149225000D03*
D13*
X126047500Y-146685000D03*
D12*
X127317500Y-149225000D03*
%TD*%
%TO.C,SW11*%
X79057500Y-92075000D03*
D13*
X81597500Y-86995000D03*
D14*
X84137500Y-92075000D03*
D13*
X87947500Y-89535000D03*
D12*
X89217500Y-92075000D03*
%TD*%
%TO.C,SW16*%
X98107500Y-92075000D03*
D13*
X100647500Y-86995000D03*
D14*
X103187500Y-92075000D03*
D13*
X106997500Y-89535000D03*
D12*
X108267500Y-92075000D03*
%TD*%
D10*
%TO.C,D32*%
X59848750Y-119856250D03*
D11*
X67468750Y-119856250D03*
%TD*%
D12*
%TO.C,SW10*%
X117157500Y-168275000D03*
D13*
X119697500Y-163195000D03*
D14*
X122237500Y-168275000D03*
D13*
X126047500Y-165735000D03*
D12*
X127317500Y-168275000D03*
%TD*%
%TO.C,SW19*%
X98107500Y-149225000D03*
D13*
X100647500Y-144145000D03*
D14*
X103187500Y-149225000D03*
D13*
X106997500Y-146685000D03*
D12*
X108267500Y-149225000D03*
%TD*%
D10*
%TO.C,D8*%
X116998750Y-138906250D03*
D11*
X124618750Y-138906250D03*
%TD*%
D10*
%TO.C,D30*%
X40640000Y-177006250D03*
D11*
X48260000Y-177006250D03*
%TD*%
D12*
%TO.C,SW13*%
X79057500Y-130175000D03*
D13*
X81597500Y-125095000D03*
D14*
X84137500Y-130175000D03*
D13*
X87947500Y-127635000D03*
D12*
X89217500Y-130175000D03*
%TD*%
%TO.C,SW20*%
X98107500Y-168275000D03*
D13*
X100647500Y-163195000D03*
D14*
X103187500Y-168275000D03*
D13*
X106997500Y-165735000D03*
D12*
X108267500Y-168275000D03*
%TD*%
D10*
%TO.C,D7*%
X116681250Y-119856250D03*
D11*
X124301250Y-119856250D03*
%TD*%
D10*
%TO.C,D24*%
X21590000Y-157956250D03*
D11*
X29210000Y-157956250D03*
%TD*%
D12*
%TO.C,SW32*%
X60007500Y-111125000D03*
D13*
X62547500Y-106045000D03*
D14*
X65087500Y-111125000D03*
D13*
X68897500Y-108585000D03*
D12*
X70167500Y-111125000D03*
%TD*%
D10*
%TO.C,D3*%
X137477500Y-138906250D03*
D11*
X145097500Y-138906250D03*
%TD*%
D10*
%TO.C,D4*%
X138271250Y-157956250D03*
D11*
X145891250Y-157956250D03*
%TD*%
D10*
%TO.C,D14*%
X78740000Y-157956250D03*
D11*
X86360000Y-157956250D03*
%TD*%
D10*
%TO.C,D33*%
X59848750Y-138906250D03*
D11*
X67468750Y-138906250D03*
%TD*%
D10*
%TO.C,D13*%
X78740000Y-138906250D03*
D11*
X86360000Y-138906250D03*
%TD*%
D12*
%TO.C,SW5*%
X136207500Y-168275000D03*
D13*
X138747500Y-163195000D03*
D14*
X141287500Y-168275000D03*
D13*
X145097500Y-165735000D03*
D12*
X146367500Y-168275000D03*
%TD*%
%TO.C,SW15*%
X79057500Y-168275000D03*
D13*
X81597500Y-163195000D03*
D14*
X84137500Y-168275000D03*
D13*
X87947500Y-165735000D03*
D12*
X89217500Y-168275000D03*
%TD*%
D10*
%TO.C,D31*%
X59690000Y-100806250D03*
D11*
X67310000Y-100806250D03*
%TD*%
D12*
%TO.C,SW21*%
X21907500Y-92075000D03*
D13*
X24447500Y-86995000D03*
D14*
X26987500Y-92075000D03*
D13*
X30797500Y-89535000D03*
D12*
X32067500Y-92075000D03*
%TD*%
D10*
%TO.C,D19*%
X97790000Y-157956250D03*
D11*
X105410000Y-157956250D03*
%TD*%
D10*
%TO.C,D29*%
X40640000Y-157956250D03*
D11*
X48260000Y-157956250D03*
%TD*%
D10*
%TO.C,D9*%
X116840000Y-157956250D03*
D11*
X124460000Y-157956250D03*
%TD*%
D12*
%TO.C,SW1*%
X136207500Y-92075000D03*
D13*
X138747500Y-86995000D03*
D14*
X141287500Y-92075000D03*
D13*
X145097500Y-89535000D03*
D12*
X146367500Y-92075000D03*
%TD*%
D10*
%TO.C,D16*%
X97948750Y-100806250D03*
D11*
X105568750Y-100806250D03*
%TD*%
D12*
%TO.C,SW33*%
X60007500Y-130175000D03*
D13*
X62547500Y-125095000D03*
D14*
X65087500Y-130175000D03*
D13*
X68897500Y-127635000D03*
D12*
X70167500Y-130175000D03*
%TD*%
D10*
%TO.C,D2*%
X138271250Y-119856250D03*
D11*
X145891250Y-119856250D03*
%TD*%
D12*
%TO.C,SW27*%
X40957500Y-111125000D03*
D13*
X43497500Y-106045000D03*
D14*
X46037500Y-111125000D03*
D13*
X49847500Y-108585000D03*
D12*
X51117500Y-111125000D03*
%TD*%
%TO.C,SW23*%
X21907500Y-130175000D03*
D13*
X24447500Y-125095000D03*
D14*
X26987500Y-130175000D03*
D13*
X30797500Y-127635000D03*
D12*
X32067500Y-130175000D03*
%TD*%
%TO.C,SW28*%
X40957500Y-130175000D03*
D13*
X43497500Y-125095000D03*
D14*
X46037500Y-130175000D03*
D13*
X49847500Y-127635000D03*
D12*
X51117500Y-130175000D03*
%TD*%
%TO.C,SW24*%
X21907500Y-149225000D03*
D13*
X24447500Y-144145000D03*
D14*
X26987500Y-149225000D03*
D13*
X30797500Y-146685000D03*
D12*
X32067500Y-149225000D03*
%TD*%
D10*
%TO.C,D18*%
X97790000Y-138906250D03*
D11*
X105410000Y-138906250D03*
%TD*%
D12*
%TO.C,SW8*%
X117157500Y-130175000D03*
D13*
X119697500Y-125095000D03*
D14*
X122237500Y-130175000D03*
D13*
X126047500Y-127635000D03*
D12*
X127317500Y-130175000D03*
%TD*%
D10*
%TO.C,D15*%
X78740000Y-177006250D03*
D11*
X86360000Y-177006250D03*
%TD*%
D10*
%TO.C,D27*%
X40640000Y-119856250D03*
D11*
X48260000Y-119856250D03*
%TD*%
D10*
%TO.C,D12*%
X78740000Y-119856250D03*
D11*
X86360000Y-119856250D03*
%TD*%
D10*
%TO.C,D25*%
X21590000Y-177006250D03*
D11*
X29210000Y-177006250D03*
%TD*%
D10*
%TO.C,D22*%
X21590000Y-119856250D03*
D11*
X29210000Y-119856250D03*
%TD*%
D10*
%TO.C,D11*%
X78898750Y-100806250D03*
D11*
X86518750Y-100806250D03*
%TD*%
D10*
%TO.C,D23*%
X21590000Y-138906250D03*
D11*
X29210000Y-138906250D03*
%TD*%
D15*
%TO.C,A1*%
X160765000Y-84520000D03*
D16*
X161065000Y-87550000D03*
X165915000Y-87550000D03*
D15*
X166215000Y-84520000D03*
D17*
X154600000Y-84390000D03*
D11*
X154600000Y-86930000D03*
D18*
X154600000Y-89470000D03*
D11*
X154600000Y-92010000D03*
X154600000Y-94550000D03*
X154600000Y-97090000D03*
X154600000Y-99630000D03*
D18*
X154600000Y-102170000D03*
D11*
X154600000Y-104710000D03*
X154600000Y-107250000D03*
X154600000Y-109790000D03*
X154600000Y-112330000D03*
D18*
X154600000Y-114870000D03*
D11*
X154600000Y-117410000D03*
X154600000Y-119950000D03*
X154600000Y-122490000D03*
X154600000Y-125030000D03*
D18*
X154600000Y-127570000D03*
D11*
X154600000Y-130110000D03*
X154600000Y-132650000D03*
X172380000Y-132650000D03*
X172380000Y-130110000D03*
D19*
X172380000Y-127570000D03*
D11*
X172380000Y-125030000D03*
X172380000Y-122490000D03*
X172380000Y-119950000D03*
X172380000Y-117410000D03*
D19*
X172380000Y-114870000D03*
D11*
X172380000Y-112330000D03*
X172380000Y-109790000D03*
X172380000Y-107250000D03*
X172380000Y-104710000D03*
D19*
X172380000Y-102170000D03*
D11*
X172380000Y-99630000D03*
X172380000Y-97090000D03*
X172380000Y-94550000D03*
X172380000Y-92010000D03*
D19*
X172380000Y-89470000D03*
D11*
X172380000Y-86930000D03*
X172380000Y-84390000D03*
%TD*%
D12*
%TO.C,SW18*%
X98107500Y-130175000D03*
D13*
X100647500Y-125095000D03*
D14*
X103187500Y-130175000D03*
D13*
X106997500Y-127635000D03*
D12*
X108267500Y-130175000D03*
%TD*%
%TO.C,SW35*%
X60007500Y-168275000D03*
D13*
X62547500Y-163195000D03*
D14*
X65087500Y-168275000D03*
D13*
X68897500Y-165735000D03*
D12*
X70167500Y-168275000D03*
%TD*%
D10*
%TO.C,D17*%
X97790000Y-119856250D03*
D11*
X105410000Y-119856250D03*
%TD*%
D12*
%TO.C,SW34*%
X60007500Y-149225000D03*
D13*
X62547500Y-144145000D03*
D14*
X65087500Y-149225000D03*
D13*
X68897500Y-146685000D03*
D12*
X70167500Y-149225000D03*
%TD*%
%TO.C,SW7*%
X117157500Y-111125000D03*
D13*
X119697500Y-106045000D03*
D14*
X122237500Y-111125000D03*
D13*
X126047500Y-108585000D03*
D12*
X127317500Y-111125000D03*
%TD*%
D10*
%TO.C,D35*%
X59690000Y-177006250D03*
D11*
X67310000Y-177006250D03*
%TD*%
D12*
%TO.C,SW6*%
X117157500Y-92075000D03*
D13*
X119697500Y-86995000D03*
D14*
X122237500Y-92075000D03*
D13*
X126047500Y-89535000D03*
D12*
X127317500Y-92075000D03*
%TD*%
D10*
%TO.C,D6*%
X116840000Y-100806250D03*
D11*
X124460000Y-100806250D03*
%TD*%
M02*
