%TF.GenerationSoftware,KiCad,Pcbnew,10.0.5*%
%TF.CreationDate,2026-09-15T13:48:29+02:00*%
%TF.ProjectId,splitkeyboard,73706c69-746b-4657-9962-6f6172642e6b,rev?*%
%TF.SameCoordinates,Original*%
%TF.FileFunction,Copper,L2,Bot*%
%TF.FilePolarity,Positive*%
%FSLAX46Y46*%
G04 Gerber Fmt 4.6, Leading zero omitted, Abs format (unit mm)*
G04 Created by KiCad (PCBNEW 10.0.5) date 2026-09-15 13:48:29*
%MOMM*%
%LPD*%
G01*
G04 APERTURE LIST*
G04 Aperture macros list*
%AMRoundRect*
0 Rectangle with rounded corners*
0 $1 Rounding radius*
0 $2 $3 $4 $5 $6 $7 $8 $9 X,Y pos of 4 corners*
0 Add a 4 corners polygon primitive as box body*
4,1,4,$2,$3,$4,$5,$6,$7,$8,$9,$2,$3,0*
0 Add four circle primitives for the rounded corners*
1,1,$1+$1,$2,$3*
1,1,$1+$1,$4,$5*
1,1,$1+$1,$6,$7*
1,1,$1+$1,$8,$9*
0 Add four rect primitives between the rounded corners*
20,1,$1+$1,$2,$3,$4,$5,0*
20,1,$1+$1,$4,$5,$6,$7,0*
20,1,$1+$1,$6,$7,$8,$9,0*
20,1,$1+$1,$8,$9,$2,$3,0*%
%AMFreePoly0*
4,1,37,0.603843,0.796157,0.639018,0.796157,0.711114,0.766294,0.766294,0.711114,0.796157,0.639018,0.796157,0.603843,0.800000,0.600000,0.800000,-0.600000,0.796157,-0.603843,0.796157,-0.639018,0.766294,-0.711114,0.711114,-0.766294,0.639018,-0.796157,0.603843,-0.796157,0.600000,-0.800000,0.000000,-0.800000,0.000000,-0.796148,-0.078414,-0.796148,-0.232228,-0.765552,-0.377117,-0.705537,
-0.507515,-0.618408,-0.618408,-0.507515,-0.705537,-0.377117,-0.765552,-0.232228,-0.796148,-0.078414,-0.796148,0.078414,-0.765552,0.232228,-0.705537,0.377117,-0.618408,0.507515,-0.507515,0.618408,-0.377117,0.705537,-0.232228,0.765552,-0.078414,0.796148,0.000000,0.796148,0.000000,0.800000,0.600000,0.800000,0.603843,0.796157,0.603843,0.796157,$1*%
%AMFreePoly1*
4,1,37,0.000000,0.796148,0.078414,0.796148,0.232228,0.765552,0.377117,0.705537,0.507515,0.618408,0.618408,0.507515,0.705537,0.377117,0.765552,0.232228,0.796148,0.078414,0.796148,-0.078414,0.765552,-0.232228,0.705537,-0.377117,0.618408,-0.507515,0.507515,-0.618408,0.377117,-0.705537,0.232228,-0.765552,0.078414,-0.796148,0.000000,-0.796148,0.000000,-0.800000,-0.600000,-0.800000,
-0.603843,-0.796157,-0.639018,-0.796157,-0.711114,-0.766294,-0.766294,-0.711114,-0.796157,-0.639018,-0.796157,-0.603843,-0.800000,-0.600000,-0.800000,0.600000,-0.796157,0.603843,-0.796157,0.639018,-0.766294,0.711114,-0.711114,0.766294,-0.639018,0.796157,-0.603843,0.796157,-0.600000,0.800000,0.000000,0.800000,0.000000,0.796148,0.000000,0.796148,$1*%
G04 Aperture macros list end*
%TA.AperFunction,ComponentPad*%
%ADD10RoundRect,0.250000X-0.550000X-0.550000X0.550000X-0.550000X0.550000X0.550000X-0.550000X0.550000X0*%
%TD*%
%TA.AperFunction,ComponentPad*%
%ADD11C,1.600000*%
%TD*%
%TA.AperFunction,ComponentPad*%
%ADD12RoundRect,0.200000X-0.600000X-0.600000X0.600000X-0.600000X0.600000X0.600000X-0.600000X0.600000X0*%
%TD*%
%TA.AperFunction,ComponentPad*%
%ADD13FreePoly0,0.000000*%
%TD*%
%TA.AperFunction,ComponentPad*%
%ADD14FreePoly1,0.000000*%
%TD*%
%TA.AperFunction,Conductor*%
%ADD15C,0.200000*%
%TD*%
G04 APERTURE END LIST*
D10*
%TO.P,D10,1,K_1*%
%TO.N,Net-(D10-K)*%
X116998750Y-177006250D03*
D11*
%TO.P,D10,2,A_2*%
%TO.N,Net-(D10-A)*%
X124618750Y-177006250D03*
%TD*%
D10*
%TO.P,D26,1,K_1*%
%TO.N,Net-(D1-K)*%
X40640000Y-100806250D03*
D11*
%TO.P,D26,2,A_2*%
%TO.N,Net-(D26-A)*%
X48260000Y-100806250D03*
%TD*%
D10*
%TO.P,D1,1,K_1*%
%TO.N,Net-(D1-K)*%
X135890000Y-100806250D03*
D11*
%TO.P,D1,2,A_2*%
%TO.N,collum 8*%
X143510000Y-100806250D03*
%TD*%
D10*
%TO.P,D28,1,K_1*%
%TO.N,Net-(D13-K)*%
X40640000Y-138906250D03*
D11*
%TO.P,D28,2,A_2*%
%TO.N,Net-(D28-A)*%
X48260000Y-138906250D03*
%TD*%
D10*
%TO.P,D34,1,K_1*%
%TO.N,Net-(D14-K)*%
X59848750Y-157956250D03*
D11*
%TO.P,D34,2,A_2*%
%TO.N,Net-(D34-A)*%
X67468750Y-157956250D03*
%TD*%
D10*
%TO.P,D5,1,K_1*%
%TO.N,Net-(D10-K)*%
X138271250Y-177006250D03*
D11*
%TO.P,D5,2,A_2*%
%TO.N,collum 12*%
X145891250Y-177006250D03*
%TD*%
D10*
%TO.P,D21,1,K_1*%
%TO.N,Net-(D1-K)*%
X21590000Y-100806250D03*
D11*
%TO.P,D21,2,A_2*%
%TO.N,Net-(D21-A)*%
X29210000Y-100806250D03*
%TD*%
D10*
%TO.P,D20,1,K_1*%
%TO.N,Net-(D10-K)*%
X97948750Y-177006250D03*
D11*
%TO.P,D20,2,A_2*%
%TO.N,Net-(D20-A)*%
X105568750Y-177006250D03*
%TD*%
D10*
%TO.P,D32,1,K_1*%
%TO.N,Net-(D12-K)*%
X59848750Y-119856250D03*
D11*
%TO.P,D32,2,A_2*%
%TO.N,Net-(D32-A)*%
X67468750Y-119856250D03*
%TD*%
D10*
%TO.P,D8,1,K_1*%
%TO.N,Net-(D13-K)*%
X116998750Y-138906250D03*
D11*
%TO.P,D8,2,A_2*%
%TO.N,Net-(D8-A)*%
X124618750Y-138906250D03*
%TD*%
D10*
%TO.P,D30,1,K_1*%
%TO.N,Net-(D10-K)*%
X40640000Y-177006250D03*
D11*
%TO.P,D30,2,A_2*%
%TO.N,Net-(D30-A)*%
X48260000Y-177006250D03*
%TD*%
D10*
%TO.P,D7,1,K_1*%
%TO.N,Net-(D12-K)*%
X116681250Y-119856250D03*
D11*
%TO.P,D7,2,A_2*%
%TO.N,Net-(D7-A)*%
X124301250Y-119856250D03*
%TD*%
D10*
%TO.P,D24,1,K_1*%
%TO.N,Net-(D14-K)*%
X21590000Y-157956250D03*
D11*
%TO.P,D24,2,A_2*%
%TO.N,Net-(D24-A)*%
X29210000Y-157956250D03*
%TD*%
D10*
%TO.P,D3,1,K_1*%
%TO.N,Net-(D13-K)*%
X137477500Y-138906250D03*
D11*
%TO.P,D3,2,A_2*%
%TO.N,collum 10*%
X145097500Y-138906250D03*
%TD*%
D10*
%TO.P,D4,1,K_1*%
%TO.N,Net-(D14-K)*%
X138271250Y-157956250D03*
D11*
%TO.P,D4,2,A_2*%
%TO.N,collum 11*%
X145891250Y-157956250D03*
%TD*%
D10*
%TO.P,D14,1,K_1*%
%TO.N,Net-(D14-K)*%
X78740000Y-157956250D03*
D11*
%TO.P,D14,2,A_2*%
%TO.N,Net-(D14-A)*%
X86360000Y-157956250D03*
%TD*%
D10*
%TO.P,D33,1,K_1*%
%TO.N,Net-(D13-K)*%
X59848750Y-138906250D03*
D11*
%TO.P,D33,2,A_2*%
%TO.N,Net-(D33-A)*%
X67468750Y-138906250D03*
%TD*%
D10*
%TO.P,D13,1,K_1*%
%TO.N,Net-(D13-K)*%
X78740000Y-138906250D03*
D11*
%TO.P,D13,2,A_2*%
%TO.N,Net-(D13-A)*%
X86360000Y-138906250D03*
%TD*%
D10*
%TO.P,D31,1,K_1*%
%TO.N,Net-(D1-K)*%
X59690000Y-100806250D03*
D11*
%TO.P,D31,2,A_2*%
%TO.N,Net-(D31-A)*%
X67310000Y-100806250D03*
%TD*%
D10*
%TO.P,D19,1,K_1*%
%TO.N,Net-(D14-K)*%
X97790000Y-157956250D03*
D11*
%TO.P,D19,2,A_2*%
%TO.N,Net-(D19-A)*%
X105410000Y-157956250D03*
%TD*%
D10*
%TO.P,D29,1,K_1*%
%TO.N,Net-(D14-K)*%
X40640000Y-157956250D03*
D11*
%TO.P,D29,2,A_2*%
%TO.N,Net-(D29-A)*%
X48260000Y-157956250D03*
%TD*%
D10*
%TO.P,D9,1,K_1*%
%TO.N,Net-(D14-K)*%
X116840000Y-157956250D03*
D11*
%TO.P,D9,2,A_2*%
%TO.N,Net-(D9-A)*%
X124460000Y-157956250D03*
%TD*%
D10*
%TO.P,D16,1,K_1*%
%TO.N,Net-(D1-K)*%
X97948750Y-100806250D03*
D11*
%TO.P,D16,2,A_2*%
%TO.N,Net-(D16-A)*%
X105568750Y-100806250D03*
%TD*%
D10*
%TO.P,D2,1,K_1*%
%TO.N,Net-(D12-K)*%
X138271250Y-119856250D03*
D11*
%TO.P,D2,2,A_2*%
%TO.N,collum 9*%
X145891250Y-119856250D03*
%TD*%
D10*
%TO.P,D18,1,K_1*%
%TO.N,Net-(D13-K)*%
X97790000Y-138906250D03*
D11*
%TO.P,D18,2,A_2*%
%TO.N,Net-(D18-A)*%
X105410000Y-138906250D03*
%TD*%
D10*
%TO.P,D15,1,K_1*%
%TO.N,Net-(D10-K)*%
X78740000Y-177006250D03*
D11*
%TO.P,D15,2,A_2*%
%TO.N,Net-(D15-A)*%
X86360000Y-177006250D03*
%TD*%
D10*
%TO.P,D27,1,K_1*%
%TO.N,Net-(D12-K)*%
X40640000Y-119856250D03*
D11*
%TO.P,D27,2,A_2*%
%TO.N,Net-(D27-A)*%
X48260000Y-119856250D03*
%TD*%
D10*
%TO.P,D12,1,K_1*%
%TO.N,Net-(D12-K)*%
X78740000Y-119856250D03*
D11*
%TO.P,D12,2,A_2*%
%TO.N,Net-(D12-A)*%
X86360000Y-119856250D03*
%TD*%
D10*
%TO.P,D25,1,K_1*%
%TO.N,Net-(D10-K)*%
X21590000Y-177006250D03*
D11*
%TO.P,D25,2,A_2*%
%TO.N,Net-(D25-A)*%
X29210000Y-177006250D03*
%TD*%
D10*
%TO.P,D22,1,K_1*%
%TO.N,Net-(D12-K)*%
X21590000Y-119856250D03*
D11*
%TO.P,D22,2,A_2*%
%TO.N,Net-(D22-A)*%
X29210000Y-119856250D03*
%TD*%
D10*
%TO.P,D11,1,K_1*%
%TO.N,Net-(D1-K)*%
X78898750Y-100806250D03*
D11*
%TO.P,D11,2,A_2*%
%TO.N,Net-(D11-A)*%
X86518750Y-100806250D03*
%TD*%
D10*
%TO.P,D23,1,K_1*%
%TO.N,Net-(D13-K)*%
X21590000Y-138906250D03*
D11*
%TO.P,D23,2,A_2*%
%TO.N,Net-(D23-A)*%
X29210000Y-138906250D03*
%TD*%
D12*
%TO.P,A1,1,GPIO0_1*%
%TO.N,collum 0*%
X154600000Y-84390000D03*
D11*
%TO.P,A1,2,GPIO1_2*%
%TO.N,collum 1*%
X154600000Y-86930000D03*
D13*
%TO.P,A1,3,GND_3*%
%TO.N,GND*%
X154600000Y-89470000D03*
D11*
%TO.P,A1,4,GPIO2_4*%
%TO.N,collum 2*%
X154600000Y-92010000D03*
%TO.P,A1,5,GPIO3_5*%
%TO.N,collum 3*%
X154600000Y-94550000D03*
%TO.P,A1,6,GPIO4_6*%
%TO.N,collum 4*%
X154600000Y-97090000D03*
%TO.P,A1,7,GPIO5_7*%
%TO.N,collum 5*%
X154600000Y-99630000D03*
D13*
%TO.P,A1,8,GND_8*%
%TO.N,GND*%
X154600000Y-102170000D03*
D11*
%TO.P,A1,9,GPIO6_9*%
%TO.N,collum 6*%
X154600000Y-104710000D03*
%TO.P,A1,10,GPIO7_10*%
%TO.N,collum 7*%
X154600000Y-107250000D03*
%TO.P,A1,11,GPIO8_11*%
%TO.N,collum 8*%
X154600000Y-109790000D03*
%TO.P,A1,12,GPIO9_12*%
%TO.N,collum 9*%
X154600000Y-112330000D03*
D13*
%TO.P,A1,13,GND_13*%
%TO.N,GND*%
X154600000Y-114870000D03*
D11*
%TO.P,A1,14,GPIO10_14*%
%TO.N,collum 10*%
X154600000Y-117410000D03*
%TO.P,A1,15,GPIO11_15*%
%TO.N,collum 11*%
X154600000Y-119950000D03*
%TO.P,A1,16,GPIO12_16*%
%TO.N,collum 12*%
X154600000Y-122490000D03*
%TO.P,A1,17,GPIO13_17*%
%TO.N,unconnected-(A1-GPIO13-Pad17)*%
X154600000Y-125030000D03*
D13*
%TO.P,A1,18,GND_18*%
%TO.N,GND*%
X154600000Y-127570000D03*
D11*
%TO.P,A1,19,GPIO14_19*%
%TO.N,unconnected-(A1-GPIO14-Pad19)*%
X154600000Y-130110000D03*
%TO.P,A1,20,GPIO15_20*%
%TO.N,unconnected-(A1-GPIO15-Pad20)*%
X154600000Y-132650000D03*
%TO.P,A1,21,GPIO16_21*%
%TO.N,unconnected-(A1-GPIO16-Pad21)*%
X172380000Y-132650000D03*
%TO.P,A1,22,GPIO17_22*%
%TO.N,unconnected-(A1-GPIO17-Pad22)*%
X172380000Y-130110000D03*
D14*
%TO.P,A1,23,GND_23*%
%TO.N,GND*%
X172380000Y-127570000D03*
D11*
%TO.P,A1,24,GPIO18_24*%
%TO.N,unconnected-(A1-GPIO18-Pad24)*%
X172380000Y-125030000D03*
%TO.P,A1,25,GPIO19_25*%
%TO.N,unconnected-(A1-GPIO19-Pad25)*%
X172380000Y-122490000D03*
%TO.P,A1,26,GPIO20_26*%
%TO.N,unconnected-(A1-GPIO20-Pad26)*%
X172380000Y-119950000D03*
%TO.P,A1,27,GPIO21_27*%
%TO.N,unconnected-(A1-GPIO21-Pad27)*%
X172380000Y-117410000D03*
D14*
%TO.P,A1,28,GND_28*%
%TO.N,GND*%
X172380000Y-114870000D03*
D11*
%TO.P,A1,29,GPIO22_29*%
%TO.N,unconnected-(A1-GPIO22-Pad29)*%
X172380000Y-112330000D03*
%TO.P,A1,30,RUN_30*%
%TO.N,unconnected-(A1-RUN-Pad30)*%
X172380000Y-109790000D03*
%TO.P,A1,31,GPIO26_ADC0_31*%
%TO.N,unconnected-(A1-GPIO26_ADC0-Pad31)*%
X172380000Y-107250000D03*
%TO.P,A1,32,GPIO27_ADC1_32*%
%TO.N,unconnected-(A1-GPIO27_ADC1-Pad32)*%
X172380000Y-104710000D03*
D14*
%TO.P,A1,33,AGND_33*%
%TO.N,unconnected-(A1-AGND-Pad33)*%
X172380000Y-102170000D03*
D11*
%TO.P,A1,34,GPIO28_ADC2_34*%
%TO.N,unconnected-(A1-GPIO28_ADC2-Pad34)*%
X172380000Y-99630000D03*
%TO.P,A1,35,ADC_VREF_35*%
%TO.N,unconnected-(A1-ADC_VREF-Pad35)*%
X172380000Y-97090000D03*
%TO.P,A1,36,3V3_36*%
%TO.N,unconnected-(A1-3V3-Pad36)*%
X172380000Y-94550000D03*
%TO.P,A1,37,3V3_EN_37*%
%TO.N,unconnected-(A1-3V3_EN-Pad37)*%
X172380000Y-92010000D03*
D14*
%TO.P,A1,38,GND_38*%
%TO.N,GND*%
X172380000Y-89470000D03*
D11*
%TO.P,A1,39,VSYS_39*%
%TO.N,unconnected-(A1-VSYS-Pad39)*%
X172380000Y-86930000D03*
%TO.P,A1,40,VBUS_40*%
%TO.N,unconnected-(A1-VBUS-Pad40)*%
X172380000Y-84390000D03*
%TD*%
D10*
%TO.P,D17,1,K_1*%
%TO.N,Net-(D12-K)*%
X97790000Y-119856250D03*
D11*
%TO.P,D17,2,A_2*%
%TO.N,Net-(D17-A)*%
X105410000Y-119856250D03*
%TD*%
D10*
%TO.P,D35,1,K_1*%
%TO.N,Net-(D10-K)*%
X59690000Y-177006250D03*
D11*
%TO.P,D35,2,A_2*%
%TO.N,Net-(D35-A)*%
X67310000Y-177006250D03*
%TD*%
D10*
%TO.P,D6,1,K_1*%
%TO.N,Net-(D1-K)*%
X116840000Y-100806250D03*
D11*
%TO.P,D6,2,A_2*%
%TO.N,Net-(D6-A)*%
X124460000Y-100806250D03*
%TD*%
%TO.N,Net-(D10-K)*%
D15*
X21590000Y-177006250D02*
X21590000Y-177165000D01*
X97948750Y-177323750D02*
X99218750Y-178593750D01*
X136683750Y-178593750D02*
X138271250Y-177006250D01*
X99218750Y-178593750D02*
X115411250Y-178593750D01*
X97948750Y-177006250D02*
X97948750Y-177323750D01*
X78740000Y-177006250D02*
X78740000Y-177165000D01*
X96361250Y-178593750D02*
X97948750Y-177006250D01*
X116998750Y-177006250D02*
X118586250Y-178593750D01*
X80168750Y-178593750D02*
X96361250Y-178593750D01*
X77152500Y-178593750D02*
X78740000Y-177006250D01*
X23018750Y-178593750D02*
X39052500Y-178593750D01*
X78740000Y-177165000D02*
X80168750Y-178593750D01*
X21590000Y-177165000D02*
X23018750Y-178593750D01*
X118586250Y-178593750D02*
X136683750Y-178593750D01*
X39052500Y-178593750D02*
X40640000Y-177006250D01*
X40640000Y-177006250D02*
X40640000Y-177165000D01*
X59690000Y-177006250D02*
X59690000Y-177165000D01*
X59690000Y-177165000D02*
X61118750Y-178593750D01*
X115411250Y-178593750D02*
X116998750Y-177006250D01*
X42068750Y-178593750D02*
X58102500Y-178593750D01*
X58102500Y-178593750D02*
X59690000Y-177006250D01*
X61118750Y-178593750D02*
X77152500Y-178593750D01*
X40640000Y-177165000D02*
X42068750Y-178593750D01*
%TO.N,Net-(D1-K)*%
X99218750Y-102393750D02*
X115252500Y-102393750D01*
X58102500Y-102393750D02*
X59690000Y-100806250D01*
X59690000Y-100965000D02*
X61118750Y-102393750D01*
X42068750Y-102235000D02*
X42068750Y-102393750D01*
X39540000Y-101906250D02*
X40640000Y-100806250D01*
X78898750Y-101123750D02*
X80168750Y-102393750D01*
X59690000Y-100806250D02*
X59690000Y-100965000D01*
X22690000Y-101906250D02*
X39540000Y-101906250D01*
X77311250Y-102393750D02*
X78898750Y-100806250D01*
X40640000Y-100806250D02*
X42068750Y-102235000D01*
X97948750Y-101123750D02*
X99218750Y-102393750D01*
X61118750Y-102393750D02*
X77311250Y-102393750D01*
X42068750Y-102393750D02*
X58102500Y-102393750D01*
X116840000Y-100806250D02*
X116840000Y-100965000D01*
X80168750Y-102393750D02*
X96361250Y-102393750D01*
X97948750Y-100806250D02*
X97948750Y-101123750D01*
X118268750Y-102393750D02*
X134302500Y-102393750D01*
X78898750Y-100806250D02*
X78898750Y-101123750D01*
X134302500Y-102393750D02*
X135890000Y-100806250D01*
X115252500Y-102393750D02*
X116840000Y-100806250D01*
X116840000Y-100965000D02*
X118268750Y-102393750D01*
X21590000Y-100806250D02*
X22690000Y-101906250D01*
X96361250Y-102393750D02*
X97948750Y-100806250D01*
%TO.N,collum 8*%
X143510000Y-100806250D02*
X144856250Y-100806250D01*
X144856250Y-100806250D02*
X153840000Y-109790000D01*
X153840000Y-109790000D02*
X154600000Y-109790000D01*
%TO.N,Net-(D13-K)*%
X42068750Y-140493750D02*
X58261250Y-140493750D01*
X99218750Y-140493750D02*
X115411250Y-140493750D01*
X118268750Y-140493750D02*
X135890000Y-140493750D01*
X78740000Y-138906250D02*
X78740000Y-139065000D01*
X116998750Y-138906250D02*
X116998750Y-139223750D01*
X80168750Y-140493750D02*
X96202500Y-140493750D01*
X96202500Y-140493750D02*
X97790000Y-138906250D01*
X97790000Y-139065000D02*
X99218750Y-140493750D01*
X59848750Y-138906250D02*
X61118750Y-140176250D01*
X40640000Y-139065000D02*
X42068750Y-140493750D01*
X23177500Y-140493750D02*
X39052500Y-140493750D01*
X116998750Y-139223750D02*
X118268750Y-140493750D01*
X61118750Y-140176250D02*
X61118750Y-140493750D01*
X115411250Y-140493750D02*
X116998750Y-138906250D01*
X97790000Y-138906250D02*
X97790000Y-139065000D01*
X135890000Y-140493750D02*
X137477500Y-138906250D01*
X61118750Y-140493750D02*
X77152500Y-140493750D01*
X58261250Y-140493750D02*
X59848750Y-138906250D01*
X39052500Y-140493750D02*
X40640000Y-138906250D01*
X21590000Y-138906250D02*
X23177500Y-140493750D01*
X77152500Y-140493750D02*
X78740000Y-138906250D01*
X40640000Y-138906250D02*
X40640000Y-139065000D01*
X78740000Y-139065000D02*
X80168750Y-140493750D01*
%TO.N,Net-(D14-K)*%
X118268750Y-159543750D02*
X136683750Y-159543750D01*
X21590000Y-157956250D02*
X21590000Y-158115000D01*
X59848750Y-157956250D02*
X61118750Y-159226250D01*
X99218750Y-159385000D02*
X99218750Y-159543750D01*
X78740000Y-158115000D02*
X80168750Y-159543750D01*
X97790000Y-157956250D02*
X99218750Y-159385000D01*
X118268750Y-159385000D02*
X118268750Y-159543750D01*
X23018750Y-159543750D02*
X39052500Y-159543750D01*
X40640000Y-158115000D02*
X42068750Y-159543750D01*
X136683750Y-159543750D02*
X138271250Y-157956250D01*
X39052500Y-159543750D02*
X40640000Y-157956250D01*
X78740000Y-157956250D02*
X78740000Y-158115000D01*
X77152500Y-159543750D02*
X78740000Y-157956250D01*
X58261250Y-159543750D02*
X59848750Y-157956250D01*
X42068750Y-159543750D02*
X58261250Y-159543750D01*
X96202500Y-159543750D02*
X97790000Y-157956250D01*
X116840000Y-157956250D02*
X118268750Y-159385000D01*
X40640000Y-157956250D02*
X40640000Y-158115000D01*
X80168750Y-159543750D02*
X96202500Y-159543750D01*
X61118750Y-159543750D02*
X77152500Y-159543750D01*
X115252500Y-159543750D02*
X116840000Y-157956250D01*
X21590000Y-158115000D02*
X23018750Y-159543750D01*
X61118750Y-159226250D02*
X61118750Y-159543750D01*
X99218750Y-159543750D02*
X115252500Y-159543750D01*
%TO.N,collum 10*%
X154600000Y-117410000D02*
X153240000Y-117410000D01*
X151606250Y-119043750D02*
X151606250Y-132397500D01*
X153240000Y-117410000D02*
X151606250Y-119043750D01*
X151606250Y-132397500D02*
X145097500Y-138906250D01*
%TO.N,collum 11*%
X153200000Y-119950000D02*
X152400000Y-120750000D01*
X154600000Y-119950000D02*
X153200000Y-119950000D01*
X152400000Y-151447500D02*
X145891250Y-157956250D01*
X152400000Y-120750000D02*
X152400000Y-151447500D01*
%TO.N,collum 12*%
X145891250Y-177006250D02*
X153100000Y-169797500D01*
X153100000Y-169797500D02*
X153100000Y-123990000D01*
X153100000Y-123990000D02*
X154600000Y-122490000D01*
%TO.N,collum 9*%
X146526250Y-119856250D02*
X145891250Y-119856250D01*
%TO.N,Net-(D12-K)*%
X21590000Y-119856250D02*
X23177500Y-121443750D01*
X97790000Y-119856250D02*
X97790000Y-120015000D01*
X58261250Y-121443750D02*
X59848750Y-119856250D01*
X40640000Y-120015000D02*
X42068750Y-121443750D01*
X116681250Y-119856250D02*
X118268750Y-121443750D01*
X118268750Y-121443750D02*
X136683750Y-121443750D01*
X136683750Y-121443750D02*
X138271250Y-119856250D01*
X78740000Y-120015000D02*
X80168750Y-121443750D01*
X42068750Y-121443750D02*
X58261250Y-121443750D01*
X99218750Y-121443750D02*
X115093750Y-121443750D01*
X80168750Y-121443750D02*
X96202500Y-121443750D01*
X39052500Y-121443750D02*
X40640000Y-119856250D01*
X78740000Y-119856250D02*
X78740000Y-120015000D01*
X40640000Y-119856250D02*
X40640000Y-120015000D01*
X96202500Y-121443750D02*
X97790000Y-119856250D01*
X77152500Y-121443750D02*
X78740000Y-119856250D01*
X61912500Y-121443750D02*
X77152500Y-121443750D01*
X115093750Y-121443750D02*
X116681250Y-119856250D01*
X23177500Y-121443750D02*
X39052500Y-121443750D01*
X59848750Y-119856250D02*
X60325000Y-119856250D01*
X60325000Y-119856250D02*
X61912500Y-121443750D01*
X97790000Y-120015000D02*
X99218750Y-121443750D01*
%TO.N,GND*%
X154600000Y-102170000D02*
X157100000Y-104670000D01*
X154600000Y-127168578D02*
X154600000Y-127570000D01*
X156280000Y-114870000D02*
X154600000Y-114870000D01*
X164100000Y-118485000D02*
X164132500Y-118517500D01*
X164132500Y-118517500D02*
X163251078Y-118517500D01*
X157100000Y-114050000D02*
X157920000Y-114870000D01*
X164100000Y-114870000D02*
X172380000Y-114870000D01*
X157100000Y-104670000D02*
X157100000Y-114050000D01*
X163251078Y-118517500D02*
X154600000Y-127168578D01*
X157100000Y-114050000D02*
X156280000Y-114870000D01*
X172380000Y-126765000D02*
X172380000Y-127570000D01*
X164100000Y-114870000D02*
X164100000Y-118485000D01*
X154600000Y-89470000D02*
X172380000Y-89470000D01*
X157920000Y-114870000D02*
X164100000Y-114870000D01*
X164132500Y-118517500D02*
X172380000Y-126765000D01*
%TD*%
M02*
